# WaveFront *.obj file (generated by Autodesk ATF)

mtllib Base_Vu_Metre.mtl

g Corps1

v 10.500000 -21.000000 18.500000
v 10.500000 -20.965926 18.758819
v 10.500000 -20.866025 19.000000
v 10.500000 -20.707107 19.207107
v 10.500000 -20.500000 19.366025
v 10.500000 -20.258819 19.465926
v 10.500000 -20.000000 19.500000
v 10.500000 -19.741181 19.465926
v 10.500000 -19.500000 19.366025
v 10.500000 -19.292893 19.207107
v 10.500000 -19.133975 19.000000
v 10.500000 -19.034074 18.758819
v 10.500000 -19.000000 18.500000
v -4.500000 -21.000000 18.500000
v -4.500000 -19.000000 18.500000
v -4.500000 -19.034074 18.758819
v -4.500000 -19.133975 19.000000
v -4.500000 -19.292893 19.207107
v -4.500000 -19.500000 19.366025
v -4.500000 -19.741181 19.465926
v -4.500000 -20.000000 19.500000
v -4.500000 -20.258819 19.465926
v -4.500000 -20.500000 19.366025
v -4.500000 -20.707107 19.207107
v -4.500000 -20.866025 19.000000
v -4.500000 -20.965926 18.758819
v 13.000000 -21.000000 18.500000
v 13.000000 -20.965926 18.758819
v 13.000000 -20.866025 19.000000
v 13.000000 -20.707107 19.207107
v 13.000000 -20.500000 19.366025
v 13.000000 -20.258819 19.465926
v 13.000000 -20.000000 19.500000
v 13.000000 -19.741181 19.465926
v 13.000000 -19.500000 19.366025
v 13.000000 -19.292893 19.207107
v 13.000000 -19.133975 19.000000
v 13.000000 -19.034074 18.758819
v 13.000000 -19.000000 18.500000
v -7.000000 -19.000000 18.500000
v -7.000000 -19.034074 18.758819
v -7.000000 -19.133975 19.000000
v -7.000000 -19.292893 19.207107
v -7.000000 -19.500000 19.366025
v -7.000000 -19.741181 19.465926
v -7.000000 -20.000000 19.500000
v -7.000000 -20.258819 19.465926
v -7.000000 -20.500000 19.366025
v -7.000000 -20.707107 19.207107
v -7.000000 -20.866025 19.000000
v -7.000000 -20.965926 18.758819
v -7.000000 -21.000000 18.500000
v 16.475000 -21.000000 18.500000
v 16.475000 -19.000000 18.500000
v -10.475000 -19.000000 18.500000
v -10.475000 -21.000000 18.500000
v 0.000000 -19.000000 16.550000
v 0.000000 -19.000000 16.050000
v 0.000000 -14.000000 16.050000
v 0.000000 -14.000000 16.550000
v -0.500000 -19.000000 17.050000
v -0.370590 -19.000000 17.032963
v -0.250000 -19.000000 16.983013
v -0.146447 -19.000000 16.903553
v -0.066987 -19.000000 16.800000
v -0.017037 -19.000000 16.679410
v -0.017037 -14.000000 16.679410
v -0.066987 -14.000000 16.800000
v -0.146447 -14.000000 16.903553
v -0.250000 -14.000000 16.983013
v -0.370590 -14.000000 17.032963
v -0.500000 -14.000000 17.050000
v -0.370590 -16.500000 17.032963
v -0.250000 -16.500000 16.983013
v -0.146447 -16.500000 16.903553
v -0.066987 -16.500000 16.800000
v -0.017037 -16.500000 16.679410
v -9.200000 -19.000000 17.050000
v -9.200000 -14.000000 17.050000
v -9.700000 -19.000000 16.550000
v -9.682963 -19.000000 16.679410
v -9.633013 -19.000000 16.800000
v -9.553553 -19.000000 16.903553
v -9.450000 -19.000000 16.983013
v -9.329410 -19.000000 17.032963
v -9.329410 -14.000000 17.032963
v -9.450000 -14.000000 16.983013
v -9.553553 -14.000000 16.903553
v -9.633013 -14.000000 16.800000
v -9.682963 -14.000000 16.679410
v -9.700000 -14.000000 16.550000
v -9.682963 -16.500000 16.679410
v -9.633013 -16.500000 16.800000
v -9.553553 -16.500000 16.903553
v -9.450000 -16.500000 16.983013
v -9.329410 -16.500000 17.032963
v -9.700000 -19.000000 16.050000
v -9.700000 -14.000000 16.050000
v 14.200000 -14.000000 13.200000
v 14.165926 -14.000000 13.458819
v 14.066025 -14.000000 13.700000
v 13.907107 -14.000000 13.907107
v 13.700000 -14.000000 14.066025
v 13.458819 -14.000000 14.165926
v 13.200000 -14.000000 14.200000
v 12.941181 -14.000000 14.165926
v 12.700000 -14.000000 14.066025
v 12.492893 -14.000000 13.907107
v 12.333975 -14.000000 13.700000
v 12.234074 -14.000000 13.458819
v 12.200000 -14.000000 13.200000
v 12.234074 -14.000000 12.941181
v 12.333975 -14.000000 12.700000
v 12.492893 -14.000000 12.492893
v 12.700000 -14.000000 12.333975
v 12.941181 -14.000000 12.234074
v 13.200000 -14.000000 12.200000
v 13.458819 -14.000000 12.234074
v 13.700000 -14.000000 12.333975
v 13.907107 -14.000000 12.492893
v 14.066025 -14.000000 12.700000
v 14.165926 -14.000000 12.941181
v 14.200000 -19.000000 13.200000
v 14.165926 -19.000000 12.941181
v 14.066025 -19.000000 12.700000
v 13.907107 -19.000000 12.492893
v 13.700000 -19.000000 12.333975
v 13.458819 -19.000000 12.234074
v 13.200000 -19.000000 12.200000
v 12.941181 -19.000000 12.234074
v 12.700000 -19.000000 12.333975
v 12.492893 -19.000000 12.492893
v 12.333975 -19.000000 12.700000
v 12.234074 -19.000000 12.941181
v 12.200000 -19.000000 13.200000
v 12.234074 -19.000000 13.458819
v 12.333975 -19.000000 13.700000
v 12.492893 -19.000000 13.907107
v 12.700000 -19.000000 14.066025
v 12.941181 -19.000000 14.165926
v 13.200000 -19.000000 14.200000
v 13.458819 -19.000000 14.165926
v 13.700000 -19.000000 14.066025
v 13.907107 -19.000000 13.907107
v 14.066025 -19.000000 13.700000
v 14.165926 -19.000000 13.458819
v 15.700000 -19.000000 16.050000
v 6.000000 -19.000000 16.050000
v 6.000000 -14.000000 16.050000
v 15.700000 -14.000000 16.050000
v 15.700000 -19.000000 16.550000
v 15.700000 -14.000000 16.550000
v 15.200000 -19.000000 17.050000
v 15.329410 -19.000000 17.032963
v 15.450000 -19.000000 16.983013
v 15.553553 -19.000000 16.903553
v 15.633013 -19.000000 16.800000
v 15.682963 -19.000000 16.679410
v 15.682963 -14.000000 16.679410
v 15.633013 -14.000000 16.800000
v 15.553553 -14.000000 16.903553
v 15.450000 -14.000000 16.983013
v 15.329410 -14.000000 17.032963
v 15.200000 -14.000000 17.050000
v 15.329410 -16.500000 17.032963
v 15.450000 -16.500000 16.983013
v 15.553553 -16.500000 16.903553
v 15.633013 -16.500000 16.800000
v 15.682963 -16.500000 16.679410
v 6.500000 -19.000000 17.050000
v 6.500000 -14.000000 17.050000
v 6.000000 -19.000000 16.550000
v 6.017037 -19.000000 16.679410
v 6.066987 -19.000000 16.800000
v 6.146447 -19.000000 16.903553
v 6.250000 -19.000000 16.983013
v 6.370590 -19.000000 17.032963
v 6.370590 -14.000000 17.032963
v 6.250000 -14.000000 16.983013
v 6.146447 -14.000000 16.903553
v 6.066987 -14.000000 16.800000
v 6.017037 -14.000000 16.679410
v 6.000000 -14.000000 16.550000
v 6.017037 -16.500000 16.679410
v 6.066987 -16.500000 16.800000
v 6.146447 -16.500000 16.903553
v 6.250000 -16.500000 16.983013
v 6.370590 -16.500000 17.032963
v -6.200000 -14.000000 13.200000
v -6.234074 -14.000000 13.458819
v -6.333975 -14.000000 13.700000
v -6.492893 -14.000000 13.907107
v -6.700000 -14.000000 14.066025
v -6.941181 -14.000000 14.165926
v -7.200000 -14.000000 14.200000
v -7.458819 -14.000000 14.165926
v -7.700000 -14.000000 14.066025
v -7.907107 -14.000000 13.907107
v -8.066025 -14.000000 13.700000
v -8.165926 -14.000000 13.458819
v -8.200000 -14.000000 13.200000
v -8.165926 -14.000000 12.941181
v -8.066025 -14.000000 12.700000
v -7.907107 -14.000000 12.492893
v -7.700000 -14.000000 12.333975
v -7.458819 -14.000000 12.234074
v -7.200000 -14.000000 12.200000
v -6.941181 -14.000000 12.234074
v -6.700000 -14.000000 12.333975
v -6.492893 -14.000000 12.492893
v -6.333975 -14.000000 12.700000
v -6.234074 -14.000000 12.941181
v -6.200000 -19.000000 13.200000
v -6.234074 -19.000000 12.941181
v -6.333975 -19.000000 12.700000
v -6.492893 -19.000000 12.492893
v -6.700000 -19.000000 12.333975
v -6.941181 -19.000000 12.234074
v -7.200000 -19.000000 12.200000
v -7.458819 -19.000000 12.234074
v -7.700000 -19.000000 12.333975
v -7.907107 -19.000000 12.492893
v -8.066025 -19.000000 12.700000
v -8.165926 -19.000000 12.941181
v -8.200000 -19.000000 13.200000
v -8.165926 -19.000000 13.458819
v -8.066025 -19.000000 13.700000
v -7.907107 -19.000000 13.907107
v -7.700000 -19.000000 14.066025
v -7.458819 -19.000000 14.165926
v -7.200000 -19.000000 14.200000
v -6.941181 -19.000000 14.165926
v -6.700000 -19.000000 14.066025
v -6.492893 -19.000000 13.907107
v -6.333975 -19.000000 13.700000
v -6.234074 -19.000000 13.458819
v 16.475000 -21.000000 -19.500000
v 16.475000 21.000000 -19.500000
v 18.475000 21.000000 -19.500000
v 18.475000 -21.000000 -19.500000
v -10.475000 21.000000 -19.500000
v -10.475000 -21.000000 -19.500000
v -12.475000 -21.000000 -19.500000
v -12.475000 21.000000 -19.500000
v -12.475000 -21.000000 -18.750000
v -12.475000 21.000000 -18.750000
v 18.475000 21.000000 -18.750000
v 18.475000 -21.000000 -18.750000
v -1.500000 -17.250000 -18.750000
v -1.969303 -17.213065 -18.750000
v -2.427051 -17.103170 -18.750000
v -2.861971 -16.923020 -18.750000
v -3.263356 -16.677051 -18.750000
v -3.621320 -16.371320 -18.750000
v -3.927051 -16.013356 -18.750000
v -4.173020 -15.611971 -18.750000
v -4.353170 -15.177051 -18.750000
v -4.463065 -14.719303 -18.750000
v -4.500000 -14.250000 -18.750000
v -4.500000 -12.750000 -18.750000
v -4.463065 -12.280697 -18.750000
v -4.353170 -11.822949 -18.750000
v -4.173020 -11.388029 -18.750000
v -3.927051 -10.986644 -18.750000
v -3.621320 -10.628680 -18.750000
v -3.263356 -10.322949 -18.750000
v -2.861971 -10.076980 -18.750000
v -2.427051 -9.896830 -18.750000
v -1.969303 -9.786935 -18.750000
v -1.500000 -9.750000 -18.750000
v 7.500000 -9.750000 -18.750000
v 7.969303 -9.786935 -18.750000
v 8.427051 -9.896830 -18.750000
v 8.861971 -10.076980 -18.750000
v 9.263356 -10.322949 -18.750000
v 9.621320 -10.628680 -18.750000
v 9.927051 -10.986644 -18.750000
v 10.173020 -11.388029 -18.750000
v 10.353170 -11.822949 -18.750000
v 10.463065 -12.280697 -18.750000
v 10.500000 -12.750000 -18.750000
v 10.500000 -14.250000 -18.750000
v 10.463065 -14.719303 -18.750000
v 10.353170 -15.177051 -18.750000
v 10.173020 -15.611971 -18.750000
v 9.927051 -16.013356 -18.750000
v 9.621320 -16.371320 -18.750000
v 9.263356 -16.677051 -18.750000
v 8.861971 -16.923020 -18.750000
v 8.427051 -17.103170 -18.750000
v 7.969303 -17.213065 -18.750000
v 7.500000 -17.250000 -18.750000
v -10.475000 -19.000000 -18.750000
v 16.475000 -19.000000 -18.750000
v 16.475000 -21.000000 -18.750000
v -10.475000 -21.000000 -18.750000
v -10.475000 21.000000 -22.500000
v -10.475000 -21.000000 -22.500000
v -1.500000 -9.750000 -22.500000
v 7.500000 -9.750000 -22.500000
v -4.500000 -12.750000 -22.500000
v -4.463065 -12.280697 -22.500000
v -4.353170 -11.822949 -22.500000
v -4.173020 -11.388029 -22.500000
v -3.927051 -10.986644 -22.500000
v -3.621320 -10.628680 -22.500000
v -3.263356 -10.322949 -22.500000
v -2.861971 -10.076980 -22.500000
v -2.427051 -9.896830 -22.500000
v -1.969303 -9.786935 -22.500000
v -4.500000 -14.250000 -22.500000
v -1.500000 -17.250000 -22.500000
v -1.969303 -17.213065 -22.500000
v -2.427051 -17.103170 -22.500000
v -2.861971 -16.923020 -22.500000
v -3.263356 -16.677051 -22.500000
v -3.621320 -16.371320 -22.500000
v -3.927051 -16.013356 -22.500000
v -4.173020 -15.611971 -22.500000
v -4.353170 -15.177051 -22.500000
v -4.463065 -14.719303 -22.500000
v 7.500000 -17.250000 -22.500000
v 10.500000 -14.250000 -22.500000
v 10.463065 -14.719303 -22.500000
v 10.353170 -15.177051 -22.500000
v 10.173020 -15.611971 -22.500000
v 9.927051 -16.013356 -22.500000
v 9.621320 -16.371320 -22.500000
v 9.263356 -16.677051 -22.500000
v 8.861971 -16.923020 -22.500000
v 8.427051 -17.103170 -22.500000
v 7.969303 -17.213065 -22.500000
v 10.500000 -12.750000 -22.500000
v 7.969303 -9.786935 -22.500000
v 8.427051 -9.896830 -22.500000
v 8.861971 -10.076980 -22.500000
v 9.263356 -10.322949 -22.500000
v 9.621320 -10.628680 -22.500000
v 9.927051 -10.986644 -22.500000
v 10.173020 -11.388029 -22.500000
v 10.353170 -11.822949 -22.500000
v 10.463065 -12.280697 -22.500000
v 16.475000 21.000000 -22.500000
v 16.475000 -21.000000 -22.500000
vt -0.100000 -0.050000 0.000000
vt 0.100000 -0.050000 0.000000
vt -0.096593 -0.024118 0.000000
vt 0.096593 -0.024118 0.000000
vt -0.086603 0.000000 0.000000
vt 0.086603 0.000000 0.000000
vt -0.070711 0.020711 0.000000
vt 0.070711 0.020711 0.000000
vt -0.050000 0.036603 0.000000
vt 0.050000 0.036603 0.000000
vt -0.025882 0.046593 0.000000
vt 0.025882 0.046593 0.000000
vt 0.000000 0.050000 0.000000
vt -0.200000 -0.750000 0.000000
vt 0.000000 -0.750000 0.000000
vt -0.200000 0.750000 0.000000
vt -0.000000 0.750000 0.000000
vt -0.100000 -0.050000 0.000000
vt 0.100000 -0.050000 0.000000
vt -0.096593 -0.024118 0.000000
vt 0.096593 -0.024118 0.000000
vt -0.086603 0.000000 0.000000
vt 0.086603 0.000000 0.000000
vt -0.070711 0.020711 0.000000
vt 0.070711 0.020711 0.000000
vt -0.050000 0.036603 0.000000
vt 0.050000 0.036603 0.000000
vt -0.025882 0.046593 0.000000
vt 0.025882 0.046593 0.000000
vt -0.000000 0.050000 0.000000
vt 1.000000 -0.314159 0.000000
vt 0.750000 -0.314159 0.000000
vt 1.000000 -0.340339 0.000000
vt 0.750000 -0.340339 0.000000
vt 1.000000 -0.366519 0.000000
vt 0.750000 -0.366519 0.000000
vt 1.000000 -0.392699 0.000000
vt 0.750000 -0.392699 0.000000
vt 1.000000 -0.418879 0.000000
vt 0.750000 -0.418879 0.000000
vt 1.000000 -0.445059 0.000000
vt 0.750000 -0.445059 0.000000
vt 1.000000 -0.471239 0.000000
vt 0.750000 -0.471239 0.000000
vt 1.000000 -0.497419 0.000000
vt 0.750000 -0.497419 0.000000
vt 1.000000 -0.523599 0.000000
vt 0.750000 -0.523599 0.000000
vt 1.000000 -0.549779 0.000000
vt 0.750000 -0.549779 0.000000
vt 1.000000 -0.575959 0.000000
vt 0.750000 -0.575959 0.000000
vt 1.000000 -0.602139 0.000000
vt 0.750000 -0.602139 0.000000
vt 1.000000 -0.628319 0.000000
vt 0.750000 -0.628319 0.000000
vt -1.000000 0.000000 0.000000
vt -0.750000 0.000000 0.000000
vt -1.000000 0.026180 0.000000
vt -0.750000 0.026180 0.000000
vt -1.000000 0.052360 0.000000
vt -0.750000 0.052360 0.000000
vt -1.000000 0.078540 0.000000
vt -0.750000 0.078540 0.000000
vt -1.000000 0.104720 0.000000
vt -0.750000 0.104720 0.000000
vt -1.000000 0.130900 0.000000
vt -0.750000 0.130900 0.000000
vt -1.000000 0.157080 0.000000
vt -0.750000 0.157080 0.000000
vt -1.000000 0.183260 0.000000
vt -0.750000 0.183260 0.000000
vt -1.000000 0.209440 0.000000
vt -0.750000 0.209440 0.000000
vt -1.000000 0.235619 0.000000
vt -0.750000 0.235619 0.000000
vt -1.000000 0.261799 0.000000
vt -0.750000 0.261799 0.000000
vt -1.000000 0.287979 0.000000
vt -0.750000 0.287979 0.000000
vt -1.000000 0.314159 0.000000
vt -0.750000 0.314159 0.000000
vt -0.100000 -0.050000 0.000000
vt 0.100000 -0.050000 0.000000
vt -0.096593 -0.024118 0.000000
vt 0.096593 -0.024118 0.000000
vt -0.086603 0.000000 0.000000
vt 0.086603 0.000000 0.000000
vt -0.070711 0.020711 0.000000
vt 0.070711 0.020711 0.000000
vt -0.050000 0.036603 0.000000
vt 0.050000 0.036603 0.000000
vt -0.025882 0.046593 0.000000
vt 0.025882 0.046593 0.000000
vt -0.000000 0.050000 0.000000
vt -0.100000 -0.050000 0.000000
vt 0.100000 -0.050000 0.000000
vt -0.096593 -0.024118 0.000000
vt 0.096593 -0.024118 0.000000
vt -0.086603 0.000000 0.000000
vt 0.086603 0.000000 0.000000
vt -0.070711 0.020711 0.000000
vt 0.070711 0.020711 0.000000
vt -0.050000 0.036603 0.000000
vt 0.050000 0.036603 0.000000
vt -0.025882 0.046593 0.000000
vt 0.025882 0.046593 0.000000
vt 0.000000 0.050000 0.000000
vt 2.347500 0.000000 0.000000
vt 2.695000 0.000000 0.000000
vt 2.347500 0.200000 0.000000
vt 2.695000 0.200000 0.000000
vt 0.347500 0.200000 0.000000
vt 0.000000 0.200000 0.000000
vt 0.347500 0.000000 0.000000
vt 0.000000 0.000000 0.000000
vt -0.000000 0.000000 0.000000
vt 0.050000 0.000000 0.000000
vt -0.000000 0.500000 0.000000
vt 0.050000 0.500000 0.000000
vt -0.500000 0.000000 0.000000
vt -0.000000 0.000000 0.000000
vt -0.250000 0.013090 0.000000
vt -0.000000 0.013090 0.000000
vt -0.250000 0.026180 0.000000
vt -0.000000 0.026180 0.000000
vt -0.250000 0.039270 0.000000
vt -0.000000 0.039270 0.000000
vt -0.250000 0.052360 0.000000
vt -0.000000 0.052360 0.000000
vt -0.250000 0.065450 0.000000
vt -0.000000 0.065450 0.000000
vt -0.000000 0.078540 0.000000
vt -0.500000 0.078540 0.000000
vt -0.500000 0.065450 0.000000
vt -0.500000 0.052360 0.000000
vt -0.500000 0.039270 0.000000
vt -0.500000 0.026180 0.000000
vt -0.500000 0.013090 0.000000
vt 0.000000 0.000000 0.000000
vt 0.870000 0.000000 0.000000
vt 0.000000 0.500000 0.000000
vt 0.870000 0.500000 0.000000
vt -0.500000 0.000000 0.000000
vt -0.000000 0.000000 0.000000
vt -0.250000 0.013090 0.000000
vt -0.000000 0.013090 0.000000
vt -0.250000 0.026180 0.000000
vt -0.000000 0.026180 0.000000
vt -0.250000 0.039270 0.000000
vt -0.000000 0.039270 0.000000
vt -0.250000 0.052360 0.000000
vt -0.000000 0.052360 0.000000
vt -0.250000 0.065450 0.000000
vt -0.000000 0.065450 0.000000
vt -0.000000 0.078540 0.000000
vt -0.500000 0.078540 0.000000
vt -0.500000 0.065450 0.000000
vt -0.500000 0.052360 0.000000
vt -0.500000 0.039270 0.000000
vt -0.500000 0.026180 0.000000
vt -0.500000 0.013090 0.000000
vt 0.000000 0.000000 0.000000
vt 0.050000 0.000000 0.000000
vt 0.000000 0.500000 0.000000
vt 0.050000 0.500000 0.000000
vt 0.000000 0.000000 0.000000
vt 0.970000 0.000000 0.000000
vt 0.000000 0.500000 0.000000
vt 0.970000 0.500000 0.000000
vt -0.485000 -0.050000 0.000000
vt 0.485000 -0.050000 0.000000
vt -0.485000 0.000000 0.000000
vt 0.485000 0.000000 0.000000
vt -0.483296 0.012941 0.000000
vt 0.483296 0.012941 0.000000
vt -0.478301 0.025000 0.000000
vt 0.478301 0.025000 0.000000
vt -0.470355 0.035355 0.000000
vt 0.470355 0.035355 0.000000
vt -0.435000 0.050000 0.000000
vt 0.435000 0.050000 0.000000
vt 0.460000 0.043301 0.000000
vt 0.447941 0.048296 0.000000
vt -0.447941 0.048296 0.000000
vt -0.460000 0.043301 0.000000
vt -0.500000 0.287979 0.000000
vt -0.000000 0.287979 0.000000
vt -0.500000 0.314159 0.000000
vt -0.000000 0.314159 0.000000
vt -0.500000 -0.314159 0.000000
vt -0.000000 -0.314159 0.000000
vt -0.500000 -0.287979 0.000000
vt -0.000000 -0.287979 0.000000
vt -0.500000 -0.261799 0.000000
vt -0.000000 -0.261799 0.000000
vt -0.500000 -0.235619 0.000000
vt -0.000000 -0.235619 0.000000
vt -0.500000 -0.209440 0.000000
vt -0.000000 -0.209440 0.000000
vt -0.500000 -0.183260 0.000000
vt -0.000000 -0.183260 0.000000
vt -0.500000 -0.157080 0.000000
vt -0.000000 -0.157080 0.000000
vt -0.500000 -0.130900 0.000000
vt -0.000000 -0.130900 0.000000
vt -0.500000 -0.104720 0.000000
vt -0.000000 -0.104720 0.000000
vt -0.500000 -0.078540 0.000000
vt -0.000000 -0.078540 0.000000
vt -0.500000 -0.052360 0.000000
vt -0.000000 -0.052360 0.000000
vt -0.500000 -0.026180 0.000000
vt -0.000000 -0.026180 0.000000
vt -0.500000 0.000000 0.000000
vt -0.000000 0.000000 0.000000
vt -0.500000 0.026180 0.000000
vt -0.000000 0.026180 0.000000
vt -0.500000 0.052360 0.000000
vt -0.000000 0.052360 0.000000
vt -0.500000 0.078540 0.000000
vt -0.000000 0.078540 0.000000
vt -0.500000 0.104720 0.000000
vt -0.000000 0.104720 0.000000
vt -0.500000 0.130900 0.000000
vt -0.000000 0.130900 0.000000
vt -0.500000 0.157080 0.000000
vt -0.000000 0.157080 0.000000
vt -0.500000 0.183260 0.000000
vt -0.000000 0.183260 0.000000
vt -0.500000 0.209440 0.000000
vt -0.000000 0.209440 0.000000
vt -0.500000 0.235619 0.000000
vt -0.000000 0.235619 0.000000
vt -0.500000 0.261799 0.000000
vt -0.000000 0.261799 0.000000
vt -0.096593 -0.025882 0.000000
vt 0.096593 -0.025882 0.000000
vt -0.100000 0.000000 0.000000
vt 0.100000 0.000000 0.000000
vt -0.096593 0.025882 0.000000
vt 0.096593 0.025882 0.000000
vt -0.086603 0.050000 0.000000
vt 0.086603 0.050000 0.000000
vt -0.070711 0.070711 0.000000
vt 0.070711 0.070711 0.000000
vt -0.050000 0.086603 0.000000
vt 0.050000 0.086603 0.000000
vt -0.025882 0.096593 0.000000
vt 0.025882 0.096593 0.000000
vt 0.000000 0.100000 0.000000
vt 0.086603 -0.050000 0.000000
vt -0.086603 -0.050000 0.000000
vt 0.070711 -0.070711 0.000000
vt -0.070711 -0.070711 0.000000
vt 0.050000 -0.086603 0.000000
vt -0.050000 -0.086603 0.000000
vt 0.025882 -0.096593 0.000000
vt -0.025882 -0.096593 0.000000
vt 0.000000 -0.100000 0.000000
vt -0.000000 0.000000 0.000000
vt 0.970000 0.000000 0.000000
vt -0.000000 0.500000 0.000000
vt 0.970000 0.500000 0.000000
vt -0.000000 0.000000 0.000000
vt 0.050000 0.000000 0.000000
vt -0.000000 0.500000 0.000000
vt 0.050000 0.500000 0.000000
vt -0.500000 0.000000 0.000000
vt -0.000000 0.000000 0.000000
vt -0.250000 0.013090 0.000000
vt -0.000000 0.013090 0.000000
vt -0.250000 0.026180 0.000000
vt -0.000000 0.026180 0.000000
vt -0.250000 0.039270 0.000000
vt -0.000000 0.039270 0.000000
vt -0.250000 0.052360 0.000000
vt -0.000000 0.052360 0.000000
vt -0.250000 0.065450 0.000000
vt -0.000000 0.065450 0.000000
vt -0.000000 0.078540 0.000000
vt -0.500000 0.078540 0.000000
vt -0.500000 0.065450 0.000000
vt -0.500000 0.052360 0.000000
vt -0.500000 0.039270 0.000000
vt -0.500000 0.026180 0.000000
vt -0.500000 0.013090 0.000000
vt 0.000000 0.000000 0.000000
vt 0.870000 0.000000 0.000000
vt 0.000000 0.500000 0.000000
vt 0.870000 0.500000 0.000000
vt -0.500000 0.000000 0.000000
vt -0.000000 0.000000 0.000000
vt -0.250000 0.013090 0.000000
vt -0.000000 0.013090 0.000000
vt -0.250000 0.026180 0.000000
vt -0.000000 0.026180 0.000000
vt -0.250000 0.039270 0.000000
vt -0.000000 0.039270 0.000000
vt -0.250000 0.052360 0.000000
vt -0.000000 0.052360 0.000000
vt -0.250000 0.065450 0.000000
vt -0.000000 0.065450 0.000000
vt -0.000000 0.078540 0.000000
vt -0.500000 0.078540 0.000000
vt -0.500000 0.065450 0.000000
vt -0.500000 0.052360 0.000000
vt -0.500000 0.039270 0.000000
vt -0.500000 0.026180 0.000000
vt -0.500000 0.013090 0.000000
vt 0.000000 0.000000 0.000000
vt 0.050000 0.000000 0.000000
vt 0.000000 0.500000 0.000000
vt 0.050000 0.500000 0.000000
vt -0.485000 -0.050000 0.000000
vt 0.485000 -0.050000 0.000000
vt -0.485000 0.000000 0.000000
vt 0.485000 0.000000 0.000000
vt -0.483296 0.012941 0.000000
vt 0.483296 0.012941 0.000000
vt -0.478301 0.025000 0.000000
vt 0.478301 0.025000 0.000000
vt -0.470355 0.035355 0.000000
vt 0.470355 0.035355 0.000000
vt -0.435000 0.050000 0.000000
vt 0.435000 0.050000 0.000000
vt 0.460000 0.043301 0.000000
vt 0.447941 0.048296 0.000000
vt -0.447941 0.048296 0.000000
vt -0.460000 0.043301 0.000000
vt -0.500000 0.287979 0.000000
vt -0.000000 0.287979 0.000000
vt -0.500000 0.314159 0.000000
vt -0.000000 0.314159 0.000000
vt -0.500000 -0.314159 0.000000
vt -0.000000 -0.314159 0.000000
vt -0.500000 -0.287979 0.000000
vt -0.000000 -0.287979 0.000000
vt -0.500000 -0.261799 0.000000
vt -0.000000 -0.261799 0.000000
vt -0.500000 -0.235619 0.000000
vt -0.000000 -0.235619 0.000000
vt -0.500000 -0.209440 0.000000
vt -0.000000 -0.209440 0.000000
vt -0.500000 -0.183260 0.000000
vt -0.000000 -0.183260 0.000000
vt -0.500000 -0.157080 0.000000
vt -0.000000 -0.157080 0.000000
vt -0.500000 -0.130900 0.000000
vt -0.000000 -0.130900 0.000000
vt -0.500000 -0.104720 0.000000
vt -0.000000 -0.104720 0.000000
vt -0.500000 -0.078540 0.000000
vt -0.000000 -0.078540 0.000000
vt -0.500000 -0.052360 0.000000
vt -0.000000 -0.052360 0.000000
vt -0.500000 -0.026180 0.000000
vt -0.000000 -0.026180 0.000000
vt -0.500000 0.000000 0.000000
vt -0.000000 0.000000 0.000000
vt -0.500000 0.026180 0.000000
vt -0.000000 0.026180 0.000000
vt -0.500000 0.052360 0.000000
vt -0.000000 0.052360 0.000000
vt -0.500000 0.078540 0.000000
vt -0.000000 0.078540 0.000000
vt -0.500000 0.104720 0.000000
vt -0.000000 0.104720 0.000000
vt -0.500000 0.130900 0.000000
vt -0.000000 0.130900 0.000000
vt -0.500000 0.157080 0.000000
vt -0.000000 0.157080 0.000000
vt -0.500000 0.183260 0.000000
vt -0.000000 0.183260 0.000000
vt -0.500000 0.209440 0.000000
vt -0.000000 0.209440 0.000000
vt -0.500000 0.235619 0.000000
vt -0.000000 0.235619 0.000000
vt -0.500000 0.261799 0.000000
vt -0.000000 0.261799 0.000000
vt -0.096593 -0.025882 0.000000
vt 0.096593 -0.025882 0.000000
vt -0.100000 0.000000 0.000000
vt 0.100000 0.000000 0.000000
vt -0.096593 0.025882 0.000000
vt 0.096593 0.025882 0.000000
vt -0.086603 0.050000 0.000000
vt 0.086603 0.050000 0.000000
vt -0.070711 0.070711 0.000000
vt 0.070711 0.070711 0.000000
vt -0.050000 0.086603 0.000000
vt 0.050000 0.086603 0.000000
vt -0.025882 0.096593 0.000000
vt 0.025882 0.096593 0.000000
vt 0.000000 0.100000 0.000000
vt 0.086603 -0.050000 0.000000
vt -0.086603 -0.050000 0.000000
vt 0.070711 -0.070711 0.000000
vt -0.070711 -0.070711 0.000000
vt 0.050000 -0.086603 0.000000
vt -0.050000 -0.086603 0.000000
vt 0.025882 -0.096593 0.000000
vt -0.025882 -0.096593 0.000000
vt 0.000000 -0.100000 0.000000
vt 1.347500 -2.100000 0.000000
vt 1.547500 -2.100000 0.000000
vt 1.347500 2.100000 0.000000
vt 1.547500 2.100000 0.000000
vt -1.347500 2.100000 0.000000
vt -1.547500 2.100000 0.000000
vt -1.347500 -2.100000 0.000000
vt -1.547500 -2.100000 0.000000
vt -0.000000 0.000000 0.000000
vt 4.200000 0.000000 0.000000
vt -0.000000 0.075000 0.000000
vt 4.200000 0.075000 0.000000
vt -0.000000 0.000000 0.000000
vt 4.200000 0.000000 0.000000
vt -0.000000 0.075000 0.000000
vt 4.200000 0.075000 0.000000
vt 0.496930 1.721307 0.000000
vt 1.347500 1.900000 0.000000
vt 0.450000 1.725000 0.000000
vt -1.347500 1.900000 0.000000
vt -0.450000 1.725000 0.000000
vt -0.496930 1.721307 0.000000
vt -0.542705 1.710317 0.000000
vt -0.586197 1.692302 0.000000
vt -0.626336 1.667705 0.000000
vt -0.662132 1.637132 0.000000
vt -0.692705 1.601336 0.000000
vt -0.717302 1.561197 0.000000
vt -0.735317 1.517705 0.000000
vt -0.746307 1.471930 0.000000
vt -0.750000 1.425000 0.000000
vt -0.750000 1.275000 0.000000
vt -0.746307 1.228070 0.000000
vt -0.735317 1.182295 0.000000
vt -0.717302 1.138803 0.000000
vt -1.547500 -2.100000 0.000000
vt -0.692705 1.098664 0.000000
vt -0.662132 1.062868 0.000000
vt -0.626336 1.032295 0.000000
vt -0.586197 1.007698 0.000000
vt -0.542705 0.989683 0.000000
vt -0.496930 0.978693 0.000000
vt -0.450000 0.975000 0.000000
vt 1.547500 -2.100000 0.000000
vt 0.450000 0.975000 0.000000
vt 0.496930 0.978693 0.000000
vt 0.542705 0.989683 0.000000
vt 0.586197 1.007698 0.000000
vt 0.626336 1.032295 0.000000
vt 0.662132 1.062868 0.000000
vt 0.692705 1.098664 0.000000
vt 0.717302 1.138803 0.000000
vt 0.735317 1.182295 0.000000
vt 0.746307 1.228070 0.000000
vt 0.750000 1.275000 0.000000
vt 0.750000 1.425000 0.000000
vt 0.746307 1.471930 0.000000
vt 0.735317 1.517705 0.000000
vt 0.717302 1.561197 0.000000
vt 0.692705 1.601336 0.000000
vt 0.662132 1.637132 0.000000
vt 0.626336 1.667705 0.000000
vt 0.586197 1.692302 0.000000
vt 0.542705 1.710317 0.000000
vt -1.347500 2.100000 0.000000
vt -1.547500 2.100000 0.000000
vt 1.547500 2.100000 0.000000
vt 1.347500 2.100000 0.000000
vt 0.000000 4.200000 0.000000
vt -0.300000 4.200000 0.000000
vt 0.000000 0.000000 0.000000
vt -0.300000 0.000000 0.000000
vt 3.725000 0.200000 0.000000
vt -0.000000 0.200000 0.000000
vt 3.725000 0.000000 0.000000
vt -0.000000 0.000000 0.000000
vt -0.000000 0.000000 0.000000
vt 0.900000 0.000000 0.000000
vt 0.000000 0.375000 0.000000
vt 0.900000 0.375000 0.000000
vt 0.375000 -0.000000 0.000000
vt 0.000000 0.000000 0.000000
vt 0.375000 -0.047124 0.000000
vt 0.000000 -0.047124 0.000000
vt 0.375000 -0.094248 0.000000
vt -0.000000 -0.094248 0.000000
vt 0.375000 -0.141372 0.000000
vt 0.000000 -0.141372 0.000000
vt 0.375000 -0.188496 0.000000
vt 0.000000 -0.188496 0.000000
vt 0.375000 -0.235619 0.000000
vt -0.000000 -0.235619 0.000000
vt 0.375000 -0.282743 0.000000
vt 0.000000 -0.282743 0.000000
vt 0.375000 -0.329867 0.000000
vt -0.000000 -0.329867 0.000000
vt 0.375000 -0.376991 0.000000
vt -0.000000 -0.376991 0.000000
vt 0.375000 -0.424115 0.000000
vt -0.000000 -0.424115 0.000000
vt 0.375000 -0.471239 0.000000
vt -0.000000 -0.471239 0.000000
vt -0.000000 0.000000 0.000000
vt 0.150000 0.000000 0.000000
vt -0.000000 0.375000 0.000000
vt 0.150000 0.375000 0.000000
vt 0.375000 -0.000000 0.000000
vt 0.000000 -0.000000 0.000000
vt 0.375000 -0.047124 0.000000
vt 0.000000 -0.047124 0.000000
vt 0.375000 -0.094248 0.000000
vt 0.000000 -0.094248 0.000000
vt 0.375000 -0.141372 0.000000
vt 0.000000 -0.141372 0.000000
vt 0.375000 -0.188496 0.000000
vt -0.000000 -0.188496 0.000000
vt 0.375000 -0.235619 0.000000
vt -0.000000 -0.235619 0.000000
vt 0.375000 -0.282743 0.000000
vt -0.000000 -0.282743 0.000000
vt 0.375000 -0.329867 0.000000
vt -0.000000 -0.329867 0.000000
vt 0.375000 -0.376991 0.000000
vt -0.000000 -0.376991 0.000000
vt 0.375000 -0.424115 0.000000
vt -0.000000 -0.424115 0.000000
vt 0.375000 -0.471239 0.000000
vt 0.000000 -0.471239 0.000000
vt -0.000000 0.000000 0.000000
vt 0.900000 0.000000 0.000000
vt -0.000000 0.375000 0.000000
vt 0.900000 0.375000 0.000000
vt 0.375000 -0.000000 0.000000
vt 0.000000 -0.000000 0.000000
vt 0.375000 -0.047124 0.000000
vt 0.000000 -0.047124 0.000000
vt 0.375000 -0.094248 0.000000
vt 0.000000 -0.094248 0.000000
vt 0.375000 -0.141372 0.000000
vt -0.000000 -0.141372 0.000000
vt 0.375000 -0.188496 0.000000
vt 0.000000 -0.188496 0.000000
vt 0.375000 -0.235619 0.000000
vt 0.000000 -0.235619 0.000000
vt 0.375000 -0.282743 0.000000
vt 0.000000 -0.282743 0.000000
vt 0.375000 -0.329867 0.000000
vt -0.000000 -0.329867 0.000000
vt 0.375000 -0.376991 0.000000
vt 0.000000 -0.376991 0.000000
vt 0.375000 -0.424115 0.000000
vt -0.000000 -0.424115 0.000000
vt 0.375000 -0.471239 0.000000
vt 0.000000 -0.471239 0.000000
vt -0.000000 0.000000 0.000000
vt 0.150000 0.000000 0.000000
vt -0.000000 0.375000 0.000000
vt 0.150000 0.375000 0.000000
vt 0.375000 0.000000 0.000000
vt 0.000000 0.000000 0.000000
vt 0.375000 -0.047124 0.000000
vt 0.000000 -0.047124 0.000000
vt 0.375000 -0.094248 0.000000
vt 0.000000 -0.094248 0.000000
vt 0.375000 -0.141372 0.000000
vt 0.000000 -0.141372 0.000000
vt 0.375000 -0.188496 0.000000
vt 0.000000 -0.188496 0.000000
vt 0.375000 -0.235619 0.000000
vt -0.000000 -0.235619 0.000000
vt 0.375000 -0.282743 0.000000
vt -0.000000 -0.282743 0.000000
vt 0.375000 -0.329867 0.000000
vt 0.000000 -0.329867 0.000000
vt 0.375000 -0.376991 0.000000
vt -0.000000 -0.376991 0.000000
vt 0.375000 -0.424115 0.000000
vt -0.000000 -0.424115 0.000000
vt 0.375000 -0.471239 0.000000
vt 0.000000 -0.471239 0.000000
vt 0.000000 0.000000 0.000000
vt 2.695000 0.000000 0.000000
vt 0.000000 0.300000 0.000000
vt 2.695000 0.300000 0.000000
vt -0.200000 0.375000 0.000000
vt 2.895000 0.375000 0.000000
vt 2.895000 0.300000 0.000000
vt -0.200000 0.300000 0.000000
vt -0.750000 1.275000 0.000000
vt -0.750000 1.425000 0.000000
vt -1.347500 2.100000 0.000000
vt -0.746307 1.471930 0.000000
vt -0.735317 1.517705 0.000000
vt -0.717302 1.561197 0.000000
vt -0.692705 1.601336 0.000000
vt -0.662132 1.637132 0.000000
vt -0.626336 1.667705 0.000000
vt -0.586197 1.692302 0.000000
vt -0.542705 1.710317 0.000000
vt -0.496930 1.721307 0.000000
vt -0.450000 1.725000 0.000000
vt 0.450000 1.725000 0.000000
vt 1.347500 2.100000 0.000000
vt 0.496930 1.721307 0.000000
vt 0.542705 1.710317 0.000000
vt 0.586197 1.692302 0.000000
vt 0.626336 1.667705 0.000000
vt 0.662132 1.637132 0.000000
vt 0.692705 1.601336 0.000000
vt 0.717302 1.561197 0.000000
vt 0.735317 1.517705 0.000000
vt 0.746307 1.471930 0.000000
vt 0.750000 1.425000 0.000000
vt 0.750000 1.275000 0.000000
vt 0.746307 1.228070 0.000000
vt 0.735317 1.182295 0.000000
vt 1.347500 -2.100000 0.000000
vt 0.717302 1.138803 0.000000
vt 0.692705 1.098664 0.000000
vt 0.662132 1.062868 0.000000
vt 0.626336 1.032295 0.000000
vt 0.586197 1.007698 0.000000
vt 0.542705 0.989683 0.000000
vt 0.496930 0.978693 0.000000
vt 0.450000 0.975000 0.000000
vt -0.450000 0.975000 0.000000
vt -1.347500 -2.100000 0.000000
vt -0.496930 0.978693 0.000000
vt -0.542705 0.989683 0.000000
vt -0.586197 1.007698 0.000000
vt -0.626336 1.032295 0.000000
vt -0.662132 1.062868 0.000000
vt -0.692705 1.098664 0.000000
vt -0.717302 1.138803 0.000000
vt -0.735317 1.182295 0.000000
vt -0.746307 1.228070 0.000000
vt 0.075000 0.000000 0.000000
vt 3.800000 0.000000 0.000000
vt 0.075000 0.200000 0.000000
vt 3.800000 0.200000 0.000000
vt 3.800000 0.000000 0.000000
vt 4.100000 0.000000 0.000000
vt 3.800000 4.200000 0.000000
vt 4.100000 4.200000 0.000000
vt -1.347500 1.900000 0.000000
vt -1.347500 -1.825000 0.000000
vt -1.000000 1.900000 0.000000
vt -0.750000 1.900000 0.000000
vt 1.347500 -1.825000 0.000000
vt 0.750000 1.900000 0.000000
vt 1.000000 1.900000 0.000000
vt 1.347500 1.900000 0.000000
vt -1.547500 -1.825000 0.000000
vt -1.347500 -1.900000 0.000000
vt 1.347500 -1.900000 0.000000
vt 1.547500 -1.900000 0.000000
vt 1.547500 -1.825000 0.000000
vt -1.547500 -1.900000 0.000000
vt -1.347500 -2.200000 0.000000
vt 1.347500 -2.200000 0.000000
vt 1.705000 -0.300000 0.000000
vt 1.655000 0.300000 0.000000
vt 1.655000 -0.300000 0.000000
vt -1.825000 -1.347500 0.000000
vt 1.299289 -0.949289 0.000000
vt 1.283397 -0.970000 0.000000
vt 1.273407 -0.994118 0.000000
vt 1.270000 -1.020000 0.000000
vt 1.273407 -1.045882 0.000000
vt 1.283397 -1.070000 0.000000
vt 1.299289 -1.090711 0.000000
vt 1.320000 -1.106603 0.000000
vt 1.655000 -1.270000 0.000000
vt 1.344118 -1.116593 0.000000
vt 1.370000 -1.120000 0.000000
vt 1.395882 -1.116593 0.000000
vt 1.420000 -1.106603 0.000000
vt 1.440711 -1.090711 0.000000
vt 1.456603 -1.070000 0.000000
vt 1.466593 -1.045882 0.000000
vt 1.470000 -1.020000 0.000000
vt 1.466593 -0.994118 0.000000
vt 1.456603 -0.970000 0.000000
vt 1.440711 -0.949289 0.000000
vt 1.420000 -0.933397 0.000000
vt 1.395882 -0.923407 0.000000
vt 1.370000 -0.920000 0.000000
vt 1.344118 -0.923407 0.000000
vt 1.320000 -0.933397 0.000000
vt 1.705000 0.300000 0.000000
vt 1.717941 -0.301704 0.000000
vt 1.717941 0.301704 0.000000
vt 1.730000 -0.306699 0.000000
vt 1.730000 0.306699 0.000000
vt 1.740355 -0.314645 0.000000
vt 1.740355 0.314645 0.000000
vt 1.748301 -0.325000 0.000000
vt 1.748301 0.325000 0.000000
vt 1.753296 -0.337059 0.000000
vt 1.753296 0.337059 0.000000
vt 1.900000 -0.750000 0.000000
vt 1.900000 0.750000 0.000000
vt 1.755000 -0.350000 0.000000
vt 1.755000 -1.220000 0.000000
vt 1.900000 -1.000000 0.000000
vt 1.900000 -1.347500 0.000000
vt 1.753296 -1.232941 0.000000
vt 1.748301 -1.245000 0.000000
vt 1.740355 -1.255355 0.000000
vt 1.730000 -1.263301 0.000000
vt 1.717941 -1.268296 0.000000
vt 1.705000 -1.270000 0.000000
vt 1.344118 1.116593 0.000000
vt 1.370000 1.120000 0.000000
vt 1.655000 1.270000 0.000000
vt 1.395882 1.116593 0.000000
vt 1.420000 1.106603 0.000000
vt 1.440711 1.090711 0.000000
vt 1.456603 1.070000 0.000000
vt 1.466593 1.045882 0.000000
vt 1.470000 1.020000 0.000000
vt 1.466593 0.994118 0.000000
vt 1.456603 0.970000 0.000000
vt 1.440711 0.949289 0.000000
vt 1.420000 0.933397 0.000000
vt 1.395882 0.923407 0.000000
vt 1.370000 0.920000 0.000000
vt 1.344118 0.923407 0.000000
vt 1.320000 0.933397 0.000000
vt 1.299289 0.949289 0.000000
vt -1.825000 1.347500 0.000000
vt 1.283397 0.970000 0.000000
vt 1.273407 0.994118 0.000000
vt 1.270000 1.020000 0.000000
vt 1.273407 1.045882 0.000000
vt 1.283397 1.070000 0.000000
vt 1.299289 1.090711 0.000000
vt 1.320000 1.106603 0.000000
vt 1.900000 1.347500 0.000000
vt 1.705000 1.270000 0.000000
vt 1.717941 1.268296 0.000000
vt 1.730000 1.263301 0.000000
vt 1.740355 1.255355 0.000000
vt 1.748301 1.245000 0.000000
vt 1.753296 1.232941 0.000000
vt 1.755000 1.220000 0.000000
vt 1.900000 1.000000 0.000000
vt 1.755000 0.350000 0.000000
vn -0.100000 0.000000 0.000000
vn -0.100000 0.000000 0.000000
vn -0.100000 0.000000 0.000000
vn -0.100000 0.000000 0.000000
vn -0.100000 0.000000 0.000000
vn -0.100000 0.000000 0.000000
vn -0.100000 0.000000 0.000000
vn -0.100000 0.000000 0.000000
vn -0.100000 0.000000 0.000000
vn -0.100000 0.000000 0.000000
vn -0.100000 0.000000 0.000000
vn -0.100000 0.000000 0.000000
vn -0.100000 0.000000 0.000000
vn 0.000000 0.000000 0.100000
vn 0.000000 0.000000 0.100000
vn 0.000000 0.000000 0.100000
vn 0.000000 0.000000 0.100000
vn 0.100000 0.000000 0.000000
vn 0.100000 0.000000 0.000000
vn 0.100000 0.000000 0.000000
vn 0.100000 0.000000 0.000000
vn 0.100000 0.000000 0.000000
vn 0.100000 0.000000 0.000000
vn 0.100000 0.000000 0.000000
vn 0.100000 0.000000 0.000000
vn 0.100000 0.000000 0.000000
vn 0.100000 0.000000 0.000000
vn 0.100000 0.000000 0.000000
vn 0.100000 0.000000 0.000000
vn 0.100000 0.000000 0.000000
vn -0.000000 0.100000 -0.000000
vn -0.000000 0.100000 -0.000000
vn 0.000000 0.096593 0.025882
vn 0.000000 0.096593 0.025882
vn 0.000000 0.086603 0.050000
vn 0.000000 0.086603 0.050000
vn 0.000000 0.070711 0.070711
vn 0.000000 0.070711 0.070711
vn 0.000000 0.050000 0.086603
vn 0.000000 0.050000 0.086603
vn 0.000000 0.025882 0.096593
vn 0.000000 0.025882 0.096593
vn 0.000000 0.000000 0.100000
vn 0.000000 0.000000 0.100000
vn 0.000000 -0.025882 0.096593
vn 0.000000 -0.025882 0.096593
vn 0.000000 -0.050000 0.086603
vn 0.000000 -0.050000 0.086603
vn 0.000000 -0.070711 0.070711
vn 0.000000 -0.070711 0.070711
vn 0.000000 -0.086603 0.050000
vn 0.000000 -0.086603 0.050000
vn 0.000000 -0.096593 0.025882
vn 0.000000 -0.096593 0.025882
vn 0.000000 -0.100000 0.000000
vn 0.000000 -0.100000 0.000000
vn 0.000000 -0.100000 0.000000
vn 0.000000 -0.100000 0.000000
vn 0.000000 -0.096593 0.025882
vn 0.000000 -0.096593 0.025882
vn 0.000000 -0.086603 0.050000
vn 0.000000 -0.086603 0.050000
vn 0.000000 -0.070711 0.070711
vn 0.000000 -0.070711 0.070711
vn 0.000000 -0.050000 0.086603
vn 0.000000 -0.050000 0.086603
vn 0.000000 -0.025882 0.096593
vn 0.000000 -0.025882 0.096593
vn 0.000000 -0.000000 0.100000
vn 0.000000 -0.000000 0.100000
vn 0.000000 0.025882 0.096593
vn 0.000000 0.025882 0.096593
vn 0.000000 0.050000 0.086603
vn 0.000000 0.050000 0.086603
vn 0.000000 0.070711 0.070711
vn 0.000000 0.070711 0.070711
vn 0.000000 0.086603 0.050000
vn 0.000000 0.086603 0.050000
vn 0.000000 0.096593 0.025882
vn 0.000000 0.096593 0.025882
vn 0.000000 0.100000 0.000000
vn 0.000000 0.100000 0.000000
vn 0.100000 0.000000 0.000000
vn 0.100000 0.000000 0.000000
vn 0.100000 0.000000 0.000000
vn 0.100000 0.000000 0.000000
vn 0.100000 0.000000 0.000000
vn 0.100000 0.000000 0.000000
vn 0.100000 0.000000 0.000000
vn 0.100000 0.000000 0.000000
vn 0.100000 0.000000 0.000000
vn 0.100000 0.000000 0.000000
vn 0.100000 0.000000 0.000000
vn 0.100000 0.000000 0.000000
vn 0.100000 0.000000 0.000000
vn -0.100000 0.000000 0.000000
vn -0.100000 0.000000 0.000000
vn -0.100000 0.000000 0.000000
vn -0.100000 0.000000 0.000000
vn -0.100000 0.000000 0.000000
vn -0.100000 0.000000 0.000000
vn -0.100000 0.000000 0.000000
vn -0.100000 0.000000 0.000000
vn -0.100000 0.000000 0.000000
vn -0.100000 0.000000 0.000000
vn -0.100000 0.000000 0.000000
vn -0.100000 0.000000 0.000000
vn -0.100000 0.000000 0.000000
vn 0.000000 -0.000000 0.100000
vn 0.000000 -0.000000 0.100000
vn 0.000000 -0.000000 0.100000
vn 0.000000 -0.000000 0.100000
vn 0.000000 -0.000000 0.100000
vn 0.000000 -0.000000 0.100000
vn 0.000000 -0.000000 0.100000
vn 0.000000 -0.000000 0.100000
vn 0.100000 0.000000 0.000000
vn 0.100000 0.000000 0.000000
vn 0.100000 0.000000 0.000000
vn 0.100000 0.000000 0.000000
vn 0.000000 0.000000 0.100000
vn 0.000000 0.000000 0.100000
vn 0.025882 -0.000000 0.096593
vn 0.025882 -0.000000 0.096593
vn 0.050000 -0.000000 0.086603
vn 0.050000 -0.000000 0.086603
vn 0.070711 -0.000000 0.070711
vn 0.070711 -0.000000 0.070711
vn 0.086603 -0.000000 0.050000
vn 0.086603 -0.000000 0.050000
vn 0.096593 -0.000000 0.025882
vn 0.096593 -0.000000 0.025882
vn 0.096593 -0.000000 0.025882
vn 0.086603 -0.000000 0.050000
vn 0.070711 -0.000000 0.070711
vn 0.050000 -0.000000 0.086603
vn 0.025882 -0.000000 0.096593
vn 0.000000 -0.000000 0.100000
vn 0.000000 -0.000000 0.100000
vn -0.100000 0.000000 0.000000
vn -0.100000 0.000000 0.000000
vn -0.096593 0.000000 0.025882
vn -0.096593 0.000000 0.025882
vn -0.086603 0.000000 0.050000
vn -0.086603 0.000000 0.050000
vn -0.070711 0.000000 0.070711
vn -0.070711 0.000000 0.070711
vn -0.050000 0.000000 0.086603
vn -0.050000 0.000000 0.086603
vn -0.025882 0.000000 0.096593
vn -0.025882 0.000000 0.096593
vn -0.025882 0.000000 0.096593
vn -0.050000 0.000000 0.086603
vn -0.070711 0.000000 0.070711
vn -0.086603 0.000000 0.050000
vn -0.096593 0.000000 0.025882
vn -0.100000 0.000000 0.000000
vn -0.100000 0.000000 0.000000
vn 0.000000 0.000000 -0.100000
vn 0.000000 0.000000 -0.100000
vn 0.000000 0.000000 -0.100000
vn 0.000000 0.000000 -0.100000
vn 0.000000 0.100000 0.000000
vn 0.000000 0.100000 0.000000
vn 0.000000 0.100000 0.000000
vn 0.000000 0.100000 0.000000
vn 0.000000 0.100000 0.000000
vn 0.000000 0.100000 0.000000
vn 0.000000 0.100000 0.000000
vn 0.000000 0.100000 0.000000
vn 0.000000 0.100000 0.000000
vn 0.000000 0.100000 0.000000
vn 0.000000 0.100000 0.000000
vn 0.000000 0.100000 0.000000
vn 0.000000 0.100000 0.000000
vn 0.000000 0.100000 0.000000
vn 0.000000 0.100000 0.000000
vn 0.000000 0.100000 0.000000
vn 0.096593 -0.000000 0.025882
vn 0.096593 -0.000000 0.025882
vn 0.100000 -0.000000 0.000000
vn 0.100000 -0.000000 0.000000
vn 0.096593 0.000000 -0.025882
vn 0.096593 0.000000 -0.025882
vn 0.086603 0.000000 -0.050000
vn 0.086603 0.000000 -0.050000
vn 0.070711 0.000000 -0.070711
vn 0.070711 0.000000 -0.070711
vn 0.050000 0.000000 -0.086603
vn 0.050000 0.000000 -0.086603
vn 0.025882 0.000000 -0.096593
vn 0.025882 0.000000 -0.096593
vn -0.000000 0.000000 -0.100000
vn -0.000000 0.000000 -0.100000
vn -0.025882 0.000000 -0.096593
vn -0.025882 0.000000 -0.096593
vn -0.050000 0.000000 -0.086603
vn -0.050000 0.000000 -0.086603
vn -0.070711 0.000000 -0.070711
vn -0.070711 0.000000 -0.070711
vn -0.086603 0.000000 -0.050000
vn -0.086603 0.000000 -0.050000
vn -0.096593 0.000000 -0.025882
vn -0.096593 0.000000 -0.025882
vn -0.100000 0.000000 0.000000
vn -0.100000 0.000000 0.000000
vn -0.096593 0.000000 0.025882
vn -0.096593 0.000000 0.025882
vn -0.086603 0.000000 0.050000
vn -0.086603 0.000000 0.050000
vn -0.070711 0.000000 0.070711
vn -0.070711 0.000000 0.070711
vn -0.050000 0.000000 0.086603
vn -0.050000 0.000000 0.086603
vn -0.025882 0.000000 0.096593
vn -0.025882 0.000000 0.096593
vn -0.000000 0.000000 0.100000
vn -0.000000 0.000000 0.100000
vn 0.025882 -0.000000 0.096593
vn 0.025882 -0.000000 0.096593
vn 0.050000 -0.000000 0.086603
vn 0.050000 -0.000000 0.086603
vn 0.070711 -0.000000 0.070711
vn 0.070711 -0.000000 0.070711
vn 0.086603 -0.000000 0.050000
vn 0.086603 -0.000000 0.050000
vn 0.000000 0.100000 0.000000
vn 0.000000 0.100000 0.000000
vn 0.000000 0.100000 0.000000
vn 0.000000 0.100000 0.000000
vn 0.000000 0.100000 0.000000
vn 0.000000 0.100000 0.000000
vn 0.000000 0.100000 0.000000
vn 0.000000 0.100000 0.000000
vn 0.000000 0.100000 0.000000
vn 0.000000 0.100000 0.000000
vn 0.000000 0.100000 0.000000
vn 0.000000 0.100000 0.000000
vn 0.000000 0.100000 0.000000
vn 0.000000 0.100000 0.000000
vn 0.000000 0.100000 0.000000
vn 0.000000 0.100000 0.000000
vn 0.000000 0.100000 0.000000
vn 0.000000 0.100000 0.000000
vn 0.000000 0.100000 0.000000
vn 0.000000 0.100000 0.000000
vn 0.000000 0.100000 0.000000
vn 0.000000 0.100000 0.000000
vn 0.000000 0.100000 0.000000
vn 0.000000 0.100000 0.000000
vn 0.000000 0.000000 -0.100000
vn 0.000000 0.000000 -0.100000
vn 0.000000 0.000000 -0.100000
vn 0.000000 0.000000 -0.100000
vn 0.100000 0.000000 0.000000
vn 0.100000 0.000000 0.000000
vn 0.100000 0.000000 0.000000
vn 0.100000 0.000000 0.000000
vn 0.000000 0.000000 0.100000
vn 0.000000 0.000000 0.100000
vn 0.025882 -0.000000 0.096593
vn 0.025882 -0.000000 0.096593
vn 0.050000 -0.000000 0.086603
vn 0.050000 -0.000000 0.086603
vn 0.070711 -0.000000 0.070711
vn 0.070711 -0.000000 0.070711
vn 0.086603 -0.000000 0.050000
vn 0.086603 -0.000000 0.050000
vn 0.096593 -0.000000 0.025882
vn 0.096593 -0.000000 0.025882
vn 0.096593 -0.000000 0.025882
vn 0.086603 -0.000000 0.050000
vn 0.070711 -0.000000 0.070711
vn 0.050000 -0.000000 0.086603
vn 0.025882 -0.000000 0.096593
vn 0.000000 -0.000000 0.100000
vn 0.000000 -0.000000 0.100000
vn -0.100000 0.000000 0.000000
vn -0.100000 0.000000 0.000000
vn -0.096593 0.000000 0.025882
vn -0.096593 0.000000 0.025882
vn -0.086603 0.000000 0.050000
vn -0.086603 0.000000 0.050000
vn -0.070711 0.000000 0.070711
vn -0.070711 0.000000 0.070711
vn -0.050000 0.000000 0.086603
vn -0.050000 0.000000 0.086603
vn -0.025882 0.000000 0.096593
vn -0.025882 0.000000 0.096593
vn -0.025882 0.000000 0.096593
vn -0.050000 0.000000 0.086603
vn -0.070711 0.000000 0.070711
vn -0.086603 0.000000 0.050000
vn -0.096593 0.000000 0.025882
vn -0.100000 0.000000 0.000000
vn -0.100000 0.000000 0.000000
vn 0.000000 0.100000 0.000000
vn 0.000000 0.100000 0.000000
vn 0.000000 0.100000 0.000000
vn 0.000000 0.100000 0.000000
vn 0.000000 0.100000 0.000000
vn 0.000000 0.100000 0.000000
vn 0.000000 0.100000 0.000000
vn 0.000000 0.100000 0.000000
vn 0.000000 0.100000 0.000000
vn 0.000000 0.100000 0.000000
vn 0.000000 0.100000 0.000000
vn 0.000000 0.100000 0.000000
vn 0.000000 0.100000 0.000000
vn 0.000000 0.100000 0.000000
vn 0.000000 0.100000 0.000000
vn 0.000000 0.100000 0.000000
vn 0.096593 -0.000000 0.025882
vn 0.096593 -0.000000 0.025882
vn 0.100000 -0.000000 0.000000
vn 0.100000 -0.000000 0.000000
vn 0.096593 0.000000 -0.025882
vn 0.096593 0.000000 -0.025882
vn 0.086603 0.000000 -0.050000
vn 0.086603 0.000000 -0.050000
vn 0.070711 0.000000 -0.070711
vn 0.070711 0.000000 -0.070711
vn 0.050000 0.000000 -0.086603
vn 0.050000 0.000000 -0.086603
vn 0.025882 0.000000 -0.096593
vn 0.025882 0.000000 -0.096593
vn -0.000000 0.000000 -0.100000
vn -0.000000 0.000000 -0.100000
vn -0.025882 0.000000 -0.096593
vn -0.025882 0.000000 -0.096593
vn -0.050000 0.000000 -0.086603
vn -0.050000 0.000000 -0.086603
vn -0.070711 0.000000 -0.070711
vn -0.070711 0.000000 -0.070711
vn -0.086603 0.000000 -0.050000
vn -0.086603 0.000000 -0.050000
vn -0.096593 0.000000 -0.025882
vn -0.096593 0.000000 -0.025882
vn -0.100000 0.000000 0.000000
vn -0.100000 0.000000 0.000000
vn -0.096593 0.000000 0.025882
vn -0.096593 0.000000 0.025882
vn -0.086603 0.000000 0.050000
vn -0.086603 0.000000 0.050000
vn -0.070711 0.000000 0.070711
vn -0.070711 0.000000 0.070711
vn -0.050000 0.000000 0.086603
vn -0.050000 0.000000 0.086603
vn -0.025882 0.000000 0.096593
vn -0.025882 0.000000 0.096593
vn -0.000000 0.000000 0.100000
vn -0.000000 0.000000 0.100000
vn 0.025882 -0.000000 0.096593
vn 0.025882 -0.000000 0.096593
vn 0.050000 -0.000000 0.086603
vn 0.050000 -0.000000 0.086603
vn 0.070711 -0.000000 0.070711
vn 0.070711 -0.000000 0.070711
vn 0.086603 -0.000000 0.050000
vn 0.086603 -0.000000 0.050000
vn 0.000000 0.100000 0.000000
vn 0.000000 0.100000 0.000000
vn 0.000000 0.100000 0.000000
vn 0.000000 0.100000 0.000000
vn 0.000000 0.100000 0.000000
vn 0.000000 0.100000 0.000000
vn 0.000000 0.100000 0.000000
vn 0.000000 0.100000 0.000000
vn 0.000000 0.100000 0.000000
vn 0.000000 0.100000 0.000000
vn 0.000000 0.100000 0.000000
vn 0.000000 0.100000 0.000000
vn 0.000000 0.100000 0.000000
vn 0.000000 0.100000 0.000000
vn 0.000000 0.100000 0.000000
vn 0.000000 0.100000 0.000000
vn 0.000000 0.100000 0.000000
vn 0.000000 0.100000 0.000000
vn 0.000000 0.100000 0.000000
vn 0.000000 0.100000 0.000000
vn 0.000000 0.100000 0.000000
vn 0.000000 0.100000 0.000000
vn 0.000000 0.100000 0.000000
vn 0.000000 0.100000 0.000000
vn 0.000000 0.000000 -0.100000
vn 0.000000 0.000000 -0.100000
vn 0.000000 0.000000 -0.100000
vn 0.000000 0.000000 -0.100000
vn 0.000000 0.000000 -0.100000
vn 0.000000 0.000000 -0.100000
vn 0.000000 0.000000 -0.100000
vn 0.000000 0.000000 -0.100000
vn -0.100000 0.000000 0.000000
vn -0.100000 0.000000 0.000000
vn -0.100000 0.000000 0.000000
vn -0.100000 0.000000 0.000000
vn 0.100000 0.000000 0.000000
vn 0.100000 0.000000 0.000000
vn 0.100000 0.000000 0.000000
vn 0.100000 0.000000 0.000000
vn 0.000000 0.000000 0.100000
vn 0.000000 0.000000 0.100000
vn 0.000000 0.000000 0.100000
vn 0.000000 0.000000 0.100000
vn 0.000000 0.000000 0.100000
vn 0.000000 0.000000 0.100000
vn 0.000000 0.000000 0.100000
vn 0.000000 0.000000 0.100000
vn 0.000000 0.000000 0.100000
vn 0.000000 0.000000 0.100000
vn 0.000000 0.000000 0.100000
vn 0.000000 0.000000 0.100000
vn 0.000000 0.000000 0.100000
vn 0.000000 0.000000 0.100000
vn 0.000000 0.000000 0.100000
vn 0.000000 0.000000 0.100000
vn 0.000000 0.000000 0.100000
vn 0.000000 0.000000 0.100000
vn 0.000000 0.000000 0.100000
vn 0.000000 0.000000 0.100000
vn 0.000000 0.000000 0.100000
vn 0.000000 0.000000 0.100000
vn 0.000000 0.000000 0.100000
vn 0.000000 0.000000 0.100000
vn 0.000000 0.000000 0.100000
vn 0.000000 0.000000 0.100000
vn 0.000000 0.000000 0.100000
vn 0.000000 0.000000 0.100000
vn 0.000000 0.000000 0.100000
vn 0.000000 0.000000 0.100000
vn 0.000000 0.000000 0.100000
vn 0.000000 0.000000 0.100000
vn 0.000000 0.000000 0.100000
vn 0.000000 0.000000 0.100000
vn 0.000000 0.000000 0.100000
vn 0.000000 0.000000 0.100000
vn 0.000000 0.000000 0.100000
vn 0.000000 0.000000 0.100000
vn 0.000000 0.000000 0.100000
vn 0.000000 0.000000 0.100000
vn 0.000000 0.000000 0.100000
vn 0.000000 0.000000 0.100000
vn 0.000000 0.000000 0.100000
vn 0.000000 0.000000 0.100000
vn 0.000000 0.000000 0.100000
vn 0.000000 0.000000 0.100000
vn 0.000000 0.000000 0.100000
vn 0.000000 0.000000 0.100000
vn 0.000000 0.000000 0.100000
vn 0.000000 0.000000 0.100000
vn 0.000000 0.000000 0.100000
vn 0.000000 0.000000 0.100000
vn -0.100000 0.000000 0.000000
vn -0.100000 0.000000 0.000000
vn -0.100000 0.000000 0.000000
vn -0.100000 0.000000 0.000000
vn 0.100000 0.000000 0.000000
vn 0.100000 0.000000 0.000000
vn 0.100000 0.000000 0.000000
vn 0.100000 0.000000 0.000000
vn 0.000000 -0.100000 0.000000
vn 0.000000 -0.100000 0.000000
vn 0.000000 -0.100000 0.000000
vn 0.000000 -0.100000 0.000000
vn 0.100000 0.000000 0.000000
vn 0.100000 0.000000 0.000000
vn 0.098769 -0.015643 0.000000
vn 0.098769 -0.015643 0.000000
vn 0.095106 -0.030902 0.000000
vn 0.095106 -0.030902 0.000000
vn 0.089101 -0.045399 0.000000
vn 0.089101 -0.045399 0.000000
vn 0.080902 -0.058779 0.000000
vn 0.080902 -0.058779 0.000000
vn 0.070711 -0.070711 0.000000
vn 0.070711 -0.070711 0.000000
vn 0.058779 -0.080902 0.000000
vn 0.058779 -0.080902 0.000000
vn 0.045399 -0.089101 0.000000
vn 0.045399 -0.089101 0.000000
vn 0.030902 -0.095106 0.000000
vn 0.030902 -0.095106 0.000000
vn 0.015643 -0.098769 0.000000
vn 0.015643 -0.098769 0.000000
vn 0.100000 0.000000 0.000000
vn 0.100000 0.000000 0.000000
vn -0.000000 0.100000 0.000000
vn -0.000000 0.100000 0.000000
vn 0.015643 0.098769 0.000000
vn 0.015643 0.098769 0.000000
vn 0.030902 0.095106 0.000000
vn 0.030902 0.095106 0.000000
vn 0.045399 0.089101 0.000000
vn 0.045399 0.089101 0.000000
vn 0.058779 0.080902 0.000000
vn 0.058779 0.080902 0.000000
vn 0.070711 0.070711 0.000000
vn 0.070711 0.070711 0.000000
vn 0.080902 0.058779 0.000000
vn 0.080902 0.058779 0.000000
vn 0.089101 0.045399 0.000000
vn 0.089101 0.045399 0.000000
vn 0.095106 0.030902 0.000000
vn 0.095106 0.030902 0.000000
vn 0.098769 0.015643 0.000000
vn 0.098769 0.015643 0.000000
vn -0.000000 0.100000 0.000000
vn -0.000000 0.100000 0.000000
vn -0.100000 -0.000000 0.000000
vn -0.100000 -0.000000 0.000000
vn -0.098769 0.015643 0.000000
vn -0.098769 0.015643 0.000000
vn -0.095106 0.030902 0.000000
vn -0.095106 0.030902 0.000000
vn -0.089101 0.045399 0.000000
vn -0.089101 0.045399 0.000000
vn -0.080902 0.058779 0.000000
vn -0.080902 0.058779 0.000000
vn -0.070711 0.070711 0.000000
vn -0.070711 0.070711 0.000000
vn -0.058779 0.080902 0.000000
vn -0.058779 0.080902 0.000000
vn -0.045399 0.089101 0.000000
vn -0.045399 0.089101 0.000000
vn -0.030902 0.095106 0.000000
vn -0.030902 0.095106 0.000000
vn -0.015643 0.098769 0.000000
vn -0.015643 0.098769 0.000000
vn -0.100000 0.000000 0.000000
vn -0.100000 0.000000 0.000000
vn -0.015643 -0.098769 0.000000
vn -0.015643 -0.098769 0.000000
vn -0.030902 -0.095106 0.000000
vn -0.030902 -0.095106 0.000000
vn -0.045399 -0.089101 0.000000
vn -0.045399 -0.089101 0.000000
vn -0.058779 -0.080902 0.000000
vn -0.058779 -0.080902 0.000000
vn -0.070711 -0.070711 0.000000
vn -0.070711 -0.070711 0.000000
vn -0.080902 -0.058779 0.000000
vn -0.080902 -0.058779 0.000000
vn -0.089101 -0.045399 0.000000
vn -0.089101 -0.045399 0.000000
vn -0.095106 -0.030902 0.000000
vn -0.095106 -0.030902 0.000000
vn -0.098769 -0.015643 0.000000
vn -0.098769 -0.015643 0.000000
vn -0.000000 0.100000 0.000000
vn -0.000000 0.100000 0.000000
vn -0.000000 0.100000 0.000000
vn -0.000000 0.100000 0.000000
vn -0.000000 0.100000 0.000000
vn -0.000000 0.100000 0.000000
vn -0.000000 0.100000 0.000000
vn -0.000000 0.100000 0.000000
vn 0.000000 0.000000 -0.100000
vn 0.000000 0.000000 -0.100000
vn 0.000000 0.000000 -0.100000
vn 0.000000 0.000000 -0.100000
vn 0.000000 0.000000 -0.100000
vn 0.000000 0.000000 -0.100000
vn 0.000000 0.000000 -0.100000
vn 0.000000 0.000000 -0.100000
vn 0.000000 0.000000 -0.100000
vn 0.000000 0.000000 -0.100000
vn 0.000000 0.000000 -0.100000
vn 0.000000 0.000000 -0.100000
vn 0.000000 0.000000 -0.100000
vn 0.000000 0.000000 -0.100000
vn 0.000000 0.000000 -0.100000
vn 0.000000 0.000000 -0.100000
vn 0.000000 0.000000 -0.100000
vn 0.000000 0.000000 -0.100000
vn 0.000000 0.000000 -0.100000
vn 0.000000 0.000000 -0.100000
vn 0.000000 0.000000 -0.100000
vn 0.000000 0.000000 -0.100000
vn 0.000000 0.000000 -0.100000
vn 0.000000 0.000000 -0.100000
vn 0.000000 0.000000 -0.100000
vn 0.000000 0.000000 -0.100000
vn 0.000000 0.000000 -0.100000
vn 0.000000 0.000000 -0.100000
vn 0.000000 0.000000 -0.100000
vn 0.000000 0.000000 -0.100000
vn 0.000000 0.000000 -0.100000
vn 0.000000 0.000000 -0.100000
vn 0.000000 0.000000 -0.100000
vn 0.000000 0.000000 -0.100000
vn 0.000000 0.000000 -0.100000
vn 0.000000 0.000000 -0.100000
vn 0.000000 0.000000 -0.100000
vn 0.000000 0.000000 -0.100000
vn 0.000000 0.000000 -0.100000
vn 0.000000 0.000000 -0.100000
vn 0.000000 0.000000 -0.100000
vn 0.000000 0.000000 -0.100000
vn 0.000000 0.000000 -0.100000
vn 0.000000 0.000000 -0.100000
vn 0.000000 0.000000 -0.100000
vn 0.000000 0.000000 -0.100000
vn 0.000000 0.000000 -0.100000
vn 0.000000 0.000000 -0.100000
vn -0.100000 0.000000 0.000000
vn -0.100000 0.000000 0.000000
vn -0.100000 0.000000 0.000000
vn -0.100000 0.000000 0.000000
vn 0.100000 0.000000 0.000000
vn 0.100000 0.000000 0.000000
vn 0.100000 0.000000 0.000000
vn 0.100000 0.000000 0.000000
vn 0.000000 -0.100000 0.000000
vn 0.000000 -0.100000 0.000000
vn 0.000000 -0.100000 0.000000
vn 0.000000 -0.100000 0.000000
vn 0.000000 -0.100000 0.000000
vn 0.000000 -0.100000 0.000000
vn 0.000000 -0.100000 0.000000
vn 0.000000 -0.100000 0.000000
vn 0.000000 -0.100000 0.000000
vn 0.000000 -0.100000 0.000000
vn 0.000000 -0.100000 0.000000
vn 0.000000 -0.100000 0.000000
vn 0.000000 0.100000 0.000000
vn 0.000000 0.100000 0.000000
vn 0.000000 0.100000 0.000000
vn 0.000000 0.100000 0.000000
vn 0.000000 0.100000 0.000000
vn 0.000000 0.100000 0.000000
vn 0.000000 0.100000 0.000000
vn 0.000000 0.100000 0.000000
vn 0.000000 0.100000 0.000000
vn 0.000000 0.100000 0.000000
vn 0.000000 0.100000 0.000000
vn 0.000000 0.100000 0.000000
vn 0.000000 0.100000 0.000000
vn 0.000000 0.100000 0.000000
vn 0.000000 0.100000 0.000000
vn 0.000000 0.100000 0.000000
vn 0.000000 0.100000 0.000000
vn 0.000000 0.100000 0.000000
vn 0.000000 0.100000 0.000000
vn 0.000000 0.100000 0.000000
vn 0.000000 0.100000 0.000000
vn 0.000000 0.100000 0.000000
vn 0.000000 0.100000 0.000000
vn 0.000000 0.100000 0.000000
vn 0.000000 0.100000 0.000000
vn 0.000000 0.100000 0.000000
vn 0.000000 0.100000 0.000000
vn 0.000000 0.100000 0.000000
vn 0.000000 0.100000 0.000000
vn 0.000000 0.100000 0.000000
vn 0.000000 0.100000 0.000000
vn 0.000000 0.100000 0.000000
vn 0.000000 0.100000 0.000000
vn 0.000000 0.100000 0.000000
vn 0.000000 0.100000 0.000000
vn 0.000000 0.100000 0.000000
vn 0.000000 0.100000 0.000000
vn 0.000000 0.100000 0.000000
vn 0.000000 0.100000 0.000000
vn 0.000000 0.100000 0.000000
vn 0.000000 0.100000 0.000000
vn 0.000000 0.100000 0.000000
vn 0.000000 0.100000 0.000000
vn 0.000000 0.100000 0.000000
vn 0.000000 0.100000 0.000000
vn 0.000000 0.100000 0.000000
vn 0.000000 0.100000 0.000000
vn 0.000000 0.100000 0.000000
vn 0.000000 0.100000 0.000000
vn 0.000000 0.100000 0.000000
vn 0.000000 0.100000 0.000000
vn 0.000000 0.100000 0.000000
vn 0.000000 0.100000 0.000000
vn 0.000000 0.100000 0.000000
vn 0.000000 0.100000 0.000000
vn 0.000000 0.100000 0.000000
vn 0.000000 0.100000 0.000000
vn 0.000000 0.100000 0.000000
vn 0.000000 0.100000 0.000000
vn 0.000000 0.100000 0.000000
vn 0.000000 0.100000 0.000000
vn 0.000000 0.100000 0.000000
vn 0.000000 0.100000 0.000000
vn 0.000000 0.100000 0.000000
vn 0.000000 0.100000 0.000000
vn 0.000000 0.100000 0.000000
vn 0.000000 0.100000 0.000000
vn 0.000000 0.100000 0.000000
vn 0.000000 0.100000 0.000000
vn 0.000000 0.100000 0.000000
vn 0.000000 0.100000 0.000000
vn 0.000000 0.100000 0.000000
vn 0.000000 0.100000 0.000000
vn 0.000000 0.100000 0.000000
vn 0.000000 0.100000 0.000000
vn 0.000000 0.100000 0.000000
vn 0.000000 0.100000 0.000000
vn 0.000000 0.100000 0.000000
vn 0.000000 0.100000 0.000000
vn 0.000000 0.100000 0.000000
vn 0.000000 0.100000 0.000000
vn 0.000000 0.100000 0.000000
vn 0.000000 0.100000 0.000000
vn 0.000000 0.100000 0.000000
usemtl Acier_-_Satiné
f 13/1/1 1/2/2 12/3/3
f 12/3/3 1/2/2 2/4/4
f 12/3/3 2/4/4 11/5/5
f 11/5/5 2/4/4 3/6/6
f 11/5/5 3/6/6 10/7/7
f 10/7/7 3/6/6 4/8/8
f 10/7/7 4/8/8 9/9/9
f 9/9/9 4/8/8 5/10/10
f 9/9/9 5/10/10 8/11/11
f 8/11/11 5/10/10 6/12/12
f 8/11/11 6/12/12 7/13/13
f 1/14/14 13/15/15 14/16/16
f 14/16/16 13/15/15 15/17/17
f 14/18/18 15/19/19 26/20/20
f 26/20/20 15/19/19 16/21/21
f 26/20/20 16/21/21 25/22/22
f 25/22/22 16/21/21 17/23/23
f 25/22/22 17/23/23 24/24/24
f 24/24/24 17/23/23 18/25/25
f 24/24/24 18/25/25 23/26/26
f 23/26/26 18/25/25 19/27/27
f 23/26/26 19/27/27 22/28/28
f 22/28/28 19/27/27 20/29/29
f 22/28/28 20/29/29 21/30/30
f 39/31/31 13/32/32 38/33/33
f 38/33/33 13/32/32 12/34/34
f 38/33/33 12/34/34 37/35/35
f 37/35/35 12/34/34 11/36/36
f 37/35/35 11/36/36 36/37/37
f 36/37/37 11/36/36 10/38/38
f 36/37/37 10/38/38 35/39/39
f 35/39/39 10/38/38 9/40/40
f 35/39/39 9/40/40 34/41/41
f 34/41/41 9/40/40 8/42/42
f 34/41/41 8/42/42 33/43/43
f 33/43/43 8/42/42 7/44/44
f 33/43/43 7/44/44 32/45/45
f 32/45/45 7/44/44 6/46/46
f 32/45/45 6/46/46 31/47/47
f 31/47/47 6/46/46 5/48/48
f 31/47/47 5/48/48 30/49/49
f 30/49/49 5/48/48 4/50/50
f 30/49/49 4/50/50 29/51/51
f 29/51/51 4/50/50 3/52/52
f 29/51/51 3/52/52 28/53/53
f 28/53/53 3/52/52 2/54/54
f 28/53/53 2/54/54 27/55/55
f 27/55/55 2/54/54 1/56/56
f 52/57/57 14/58/58 51/59/59
f 51/59/59 14/58/58 26/60/60
f 51/59/59 26/60/60 50/61/61
f 50/61/61 26/60/60 25/62/62
f 50/61/61 25/62/62 49/63/63
f 49/63/63 25/62/62 24/64/64
f 49/63/63 24/64/64 48/65/65
f 48/65/65 24/64/64 23/66/66
f 48/65/65 23/66/66 47/67/67
f 47/67/67 23/66/66 22/68/68
f 47/67/67 22/68/68 46/69/69
f 46/69/69 22/68/68 21/70/70
f 46/69/69 21/70/70 45/71/71
f 45/71/71 21/70/70 20/72/72
f 45/71/71 20/72/72 44/73/73
f 44/73/73 20/72/72 19/74/74
f 44/73/73 19/74/74 43/75/75
f 43/75/75 19/74/74 18/76/76
f 43/75/75 18/76/76 42/77/77
f 42/77/77 18/76/76 17/78/78
f 42/77/77 17/78/78 41/79/79
f 41/79/79 17/78/78 16/80/80
f 41/79/79 16/80/80 40/81/81
f 40/81/81 16/80/80 15/82/82
f 27/83/83 39/84/84 28/85/85
f 28/85/85 39/84/84 38/86/86
f 28/85/85 38/86/86 29/87/87
f 29/87/87 38/86/86 37/88/88
f 29/87/87 37/88/88 30/89/89
f 30/89/89 37/88/88 36/90/90
f 30/89/89 36/90/90 31/91/91
f 31/91/91 36/90/90 35/92/92
f 31/91/91 35/92/92 32/93/93
f 32/93/93 35/92/92 34/94/94
f 32/93/93 34/94/94 33/95/95
f 40/96/96 52/97/97 41/98/98
f 41/98/98 52/97/97 51/99/99
f 41/98/98 51/99/99 42/100/100
f 42/100/100 51/99/99 50/101/101
f 42/100/100 50/101/101 43/102/102
f 43/102/102 50/101/101 49/103/103
f 43/102/102 49/103/103 44/104/104
f 44/104/104 49/103/103 48/105/105
f 44/104/104 48/105/105 45/106/106
f 45/106/106 48/105/105 47/107/107
f 45/106/106 47/107/107 46/108/108
f 27/109/109 53/110/110 39/111/111
f 39/111/111 53/110/110 54/112/112
f 40/113/113 55/114/114 52/115/115
f 52/115/115 55/114/114 56/116/116
f 57/117/117 58/118/118 60/119/119
f 60/119/119 58/118/118 59/120/120
f 72/121/121 61/122/122 73/123/123
f 73/123/123 61/122/122 62/124/124
f 73/123/123 62/124/124 74/125/125
f 74/125/125 62/124/124 63/126/126
f 74/125/125 63/126/126 75/127/127
f 75/127/127 63/126/126 64/128/128
f 75/127/127 64/128/128 76/129/129
f 76/129/129 64/128/128 65/130/130
f 76/129/129 65/130/130 77/131/131
f 77/131/131 65/130/130 66/132/132
f 77/131/131 66/132/132 57/133/117
f 57/133/117 60/134/119 77/131/131
f 77/131/131 60/134/119 67/135/133
f 77/131/131 67/135/133 76/129/129
f 76/129/129 67/135/133 68/136/134
f 76/129/129 68/136/134 75/127/127
f 75/127/127 68/136/134 69/137/135
f 75/127/127 69/137/135 74/125/125
f 74/125/125 69/137/135 70/138/136
f 74/125/125 70/138/136 73/123/123
f 73/123/123 70/138/136 71/139/137
f 73/123/123 71/139/137 72/121/121
f 78/140/138 61/141/122 79/142/139
f 79/142/139 61/141/122 72/143/121
f 91/144/140 80/145/141 92/146/142
f 92/146/142 80/145/141 81/147/143
f 92/146/142 81/147/143 93/148/144
f 93/148/144 81/147/143 82/149/145
f 93/148/144 82/149/145 94/150/146
f 94/150/146 82/149/145 83/151/147
f 94/150/146 83/151/147 95/152/148
f 95/152/148 83/151/147 84/153/149
f 95/152/148 84/153/149 96/154/150
f 96/154/150 84/153/149 85/155/151
f 96/154/150 85/155/151 78/156/138
f 78/156/138 79/157/139 96/154/150
f 96/154/150 79/157/139 86/158/152
f 96/154/150 86/158/152 95/152/148
f 95/152/148 86/158/152 87/159/153
f 95/152/148 87/159/153 94/150/146
f 94/150/146 87/159/153 88/160/154
f 94/150/146 88/160/154 93/148/144
f 93/148/144 88/160/154 89/161/155
f 93/148/144 89/161/155 92/146/142
f 92/146/142 89/161/155 90/162/156
f 92/146/142 90/162/156 91/144/140
f 97/163/157 80/164/141 98/165/158
f 98/165/158 80/164/141 91/166/140
f 58/167/159 97/168/160 59/169/161
f 59/169/161 97/168/160 98/170/162
f 59/171/163 98/172/164 60/173/165
f 60/173/165 98/172/164 91/174/166
f 60/173/165 91/174/166 67/175/167
f 67/175/167 91/174/166 90/176/168
f 67/175/167 90/176/168 68/177/169
f 68/177/169 90/176/168 89/178/170
f 68/177/169 89/178/170 69/179/171
f 69/179/171 89/178/170 88/180/172
f 69/179/171 88/180/172 72/181/173
f 72/181/173 88/180/172 79/182/174
f 79/182/174 88/180/172 87/183/175
f 79/182/174 87/183/175 86/184/176
f 71/185/177 70/186/178 72/181/173
f 72/181/173 70/186/178 69/179/171
f 100/187/179 146/188/180 99/189/181
f 99/189/181 146/188/180 123/190/182
f 99/191/181 123/192/182 122/193/183
f 122/193/183 123/192/182 124/194/184
f 122/193/183 124/194/184 121/195/185
f 121/195/185 124/194/184 125/196/186
f 121/195/185 125/196/186 120/197/187
f 120/197/187 125/196/186 126/198/188
f 120/197/187 126/198/188 119/199/189
f 119/199/189 126/198/188 127/200/190
f 119/199/189 127/200/190 118/201/191
f 118/201/191 127/200/190 128/202/192
f 118/201/191 128/202/192 117/203/193
f 117/203/193 128/202/192 129/204/194
f 117/203/193 129/204/194 116/205/195
f 116/205/195 129/204/194 130/206/196
f 116/205/195 130/206/196 115/207/197
f 115/207/197 130/206/196 131/208/198
f 115/207/197 131/208/198 114/209/199
f 114/209/199 131/208/198 132/210/200
f 114/209/199 132/210/200 113/211/201
f 113/211/201 132/210/200 133/212/202
f 113/211/201 133/212/202 112/213/203
f 112/213/203 133/212/202 134/214/204
f 112/213/203 134/214/204 111/215/205
f 111/215/205 134/214/204 135/216/206
f 111/215/205 135/216/206 110/217/207
f 110/217/207 135/216/206 136/218/208
f 110/217/207 136/218/208 109/219/209
f 109/219/209 136/218/208 137/220/210
f 109/219/209 137/220/210 108/221/211
f 108/221/211 137/220/210 138/222/212
f 108/221/211 138/222/212 107/223/213
f 107/223/213 138/222/212 139/224/214
f 107/223/213 139/224/214 106/225/215
f 106/225/215 139/224/214 140/226/216
f 106/225/215 140/226/216 105/227/217
f 105/227/217 140/226/216 141/228/218
f 105/227/217 141/228/218 104/229/219
f 104/229/219 141/228/218 142/230/220
f 104/229/219 142/230/220 103/231/221
f 103/231/221 142/230/220 143/232/222
f 103/231/221 143/232/222 102/233/223
f 102/233/223 143/232/222 144/234/224
f 102/233/223 144/234/224 101/235/225
f 101/235/225 144/234/224 145/236/226
f 101/235/225 145/236/226 100/187/179
f 100/187/179 145/236/226 146/188/180
f 122/237/227 112/238/228 99/239/229
f 99/239/229 112/238/228 111/240/230
f 99/239/229 111/240/230 100/241/231
f 100/241/231 111/240/230 110/242/232
f 100/241/231 110/242/232 101/243/233
f 101/243/233 110/242/232 109/244/234
f 101/243/233 109/244/234 102/245/235
f 102/245/235 109/244/234 108/246/236
f 102/245/235 108/246/236 103/247/237
f 103/247/237 108/246/236 107/248/238
f 103/247/237 107/248/238 104/249/239
f 104/249/239 107/248/238 106/250/240
f 104/249/239 106/250/240 105/251/241
f 112/238/228 122/237/227 113/252/242
f 113/252/242 122/237/227 121/253/243
f 113/252/242 121/253/243 114/254/244
f 114/254/244 121/253/243 120/255/245
f 114/254/244 120/255/245 115/256/246
f 115/256/246 120/255/245 119/257/247
f 115/256/246 119/257/247 116/258/248
f 116/258/248 119/257/247 118/259/249
f 116/258/248 118/259/249 117/260/250
f 147/261/251 148/262/252 150/263/253
f 150/263/253 148/262/252 149/264/254
f 151/265/255 147/266/256 152/267/257
f 152/267/257 147/266/256 150/268/258
f 164/269/259 153/270/260 165/271/261
f 165/271/261 153/270/260 154/272/262
f 165/271/261 154/272/262 166/273/263
f 166/273/263 154/272/262 155/274/264
f 166/273/263 155/274/264 167/275/265
f 167/275/265 155/274/264 156/276/266
f 167/275/265 156/276/266 168/277/267
f 168/277/267 156/276/266 157/278/268
f 168/277/267 157/278/268 169/279/269
f 169/279/269 157/278/268 158/280/270
f 169/279/269 158/280/270 151/281/255
f 151/281/255 152/282/257 169/279/269
f 169/279/269 152/282/257 159/283/271
f 169/279/269 159/283/271 168/277/267
f 168/277/267 159/283/271 160/284/272
f 168/277/267 160/284/272 167/275/265
f 167/275/265 160/284/272 161/285/273
f 167/275/265 161/285/273 166/273/263
f 166/273/263 161/285/273 162/286/274
f 166/273/263 162/286/274 165/271/261
f 165/271/261 162/286/274 163/287/275
f 165/271/261 163/287/275 164/269/259
f 170/288/276 153/289/260 171/290/277
f 171/290/277 153/289/260 164/291/259
f 183/292/278 172/293/279 184/294/280
f 184/294/280 172/293/279 173/295/281
f 184/294/280 173/295/281 185/296/282
f 185/296/282 173/295/281 174/297/283
f 185/296/282 174/297/283 186/298/284
f 186/298/284 174/297/283 175/299/285
f 186/298/284 175/299/285 187/300/286
f 187/300/286 175/299/285 176/301/287
f 187/300/286 176/301/287 188/302/288
f 188/302/288 176/301/287 177/303/289
f 188/302/288 177/303/289 170/304/276
f 170/304/276 171/305/277 188/302/288
f 188/302/288 171/305/277 178/306/290
f 188/302/288 178/306/290 187/300/286
f 187/300/286 178/306/290 179/307/291
f 187/300/286 179/307/291 186/298/284
f 186/298/284 179/307/291 180/308/292
f 186/298/284 180/308/292 185/296/282
f 185/296/282 180/308/292 181/309/293
f 185/296/282 181/309/293 184/294/280
f 184/294/280 181/309/293 182/310/294
f 184/294/280 182/310/294 183/292/278
f 148/311/295 172/312/279 149/313/296
f 149/313/296 172/312/279 183/314/278
f 150/315/297 149/316/298 152/317/299
f 152/317/299 149/316/298 183/318/300
f 152/317/299 183/318/300 159/319/301
f 159/319/301 183/318/300 182/320/302
f 159/319/301 182/320/302 160/321/303
f 160/321/303 182/320/302 181/322/304
f 160/321/303 181/322/304 161/323/305
f 161/323/305 181/322/304 180/324/306
f 161/323/305 180/324/306 164/325/307
f 164/325/307 180/324/306 171/326/308
f 171/326/308 180/324/306 179/327/309
f 171/326/308 179/327/309 178/328/310
f 163/329/311 162/330/312 164/325/307
f 164/325/307 162/330/312 161/323/305
f 190/331/313 236/332/314 189/333/315
f 189/333/315 236/332/314 213/334/316
f 189/335/315 213/336/316 212/337/317
f 212/337/317 213/336/316 214/338/318
f 212/337/317 214/338/318 211/339/319
f 211/339/319 214/338/318 215/340/320
f 211/339/319 215/340/320 210/341/321
f 210/341/321 215/340/320 216/342/322
f 210/341/321 216/342/322 209/343/323
f 209/343/323 216/342/322 217/344/324
f 209/343/323 217/344/324 208/345/325
f 208/345/325 217/344/324 218/346/326
f 208/345/325 218/346/326 207/347/327
f 207/347/327 218/346/326 219/348/328
f 207/347/327 219/348/328 206/349/329
f 206/349/329 219/348/328 220/350/330
f 206/349/329 220/350/330 205/351/331
f 205/351/331 220/350/330 221/352/332
f 205/351/331 221/352/332 204/353/333
f 204/353/333 221/352/332 222/354/334
f 204/353/333 222/354/334 203/355/335
f 203/355/335 222/354/334 223/356/336
f 203/355/335 223/356/336 202/357/337
f 202/357/337 223/356/336 224/358/338
f 202/357/337 224/358/338 201/359/339
f 201/359/339 224/358/338 225/360/340
f 201/359/339 225/360/340 200/361/341
f 200/361/341 225/360/340 226/362/342
f 200/361/341 226/362/342 199/363/343
f 199/363/343 226/362/342 227/364/344
f 199/363/343 227/364/344 198/365/345
f 198/365/345 227/364/344 228/366/346
f 198/365/345 228/366/346 197/367/347
f 197/367/347 228/366/346 229/368/348
f 197/367/347 229/368/348 196/369/349
f 196/369/349 229/368/348 230/370/350
f 196/369/349 230/370/350 195/371/351
f 195/371/351 230/370/350 231/372/352
f 195/371/351 231/372/352 194/373/353
f 194/373/353 231/372/352 232/374/354
f 194/373/353 232/374/354 193/375/355
f 193/375/355 232/374/354 233/376/356
f 193/375/355 233/376/356 192/377/357
f 192/377/357 233/376/356 234/378/358
f 192/377/357 234/378/358 191/379/359
f 191/379/359 234/378/358 235/380/360
f 191/379/359 235/380/360 190/331/313
f 190/331/313 235/380/360 236/332/314
f 212/381/361 202/382/362 189/383/363
f 189/383/363 202/382/362 201/384/364
f 189/383/363 201/384/364 190/385/365
f 190/385/365 201/384/364 200/386/366
f 190/385/365 200/386/366 191/387/367
f 191/387/367 200/386/366 199/388/368
f 191/387/367 199/388/368 192/389/369
f 192/389/369 199/388/368 198/390/370
f 192/389/369 198/390/370 193/391/371
f 193/391/371 198/390/370 197/392/372
f 193/391/371 197/392/372 194/393/373
f 194/393/373 197/392/372 196/394/374
f 194/393/373 196/394/374 195/395/375
f 202/382/362 212/381/361 203/396/376
f 203/396/376 212/381/361 211/397/377
f 203/396/376 211/397/377 204/398/378
f 204/398/378 211/397/377 210/399/379
f 204/398/378 210/399/379 205/400/380
f 205/400/380 210/399/379 209/401/381
f 205/400/380 209/401/381 206/402/382
f 206/402/382 209/401/381 208/403/383
f 206/402/382 208/403/383 207/404/384
f 238/405/385 239/406/386 237/407/387
f 237/407/387 239/406/386 240/408/388
f 242/409/389 243/410/390 241/411/391
f 241/411/391 243/410/390 244/412/392
f 244/413/393 243/414/394 246/415/395
f 246/415/395 243/414/394 245/416/396
f 240/417/397 239/418/398 248/419/399
f 248/419/399 239/418/398 247/420/400
f 250/421/401 293/422/402 249/423/403
f 249/423/403 293/422/402 294/424/404
f 249/423/403 294/424/404 292/425/405
f 292/425/405 294/424/404 291/426/406
f 291/426/406 294/424/404 290/427/407
f 290/427/407 294/424/404 289/428/408
f 289/428/408 294/424/404 288/429/409
f 288/429/409 294/424/404 287/430/410
f 287/430/410 294/424/404 286/431/411
f 286/431/411 294/424/404 285/432/412
f 285/432/412 294/424/404 284/433/413
f 284/433/413 294/424/404 283/434/414
f 283/434/414 294/424/404 282/435/415
f 282/435/415 294/424/404 281/436/416
f 281/436/416 294/424/404 280/437/417
f 280/437/417 294/424/404 279/438/418
f 279/438/418 294/424/404 278/439/419
f 278/439/419 294/424/404 247/440/420
f 278/439/419 247/440/420 277/441/421
f 277/441/421 247/440/420 276/442/422
f 276/442/422 247/440/420 275/443/423
f 275/443/423 247/440/420 274/444/424
f 274/444/424 247/440/420 273/445/425
f 273/445/425 247/440/420 272/446/426
f 272/446/426 247/440/420 271/447/427
f 271/447/427 247/440/420 246/448/428
f 271/447/427 246/448/428 270/449/429
f 270/449/429 246/448/428 269/450/430
f 269/450/430 246/448/428 268/451/431
f 268/451/431 246/448/428 267/452/432
f 267/452/432 246/448/428 266/453/433
f 266/453/433 246/448/428 265/454/434
f 265/454/434 246/448/428 264/455/435
f 264/455/435 246/448/428 263/456/436
f 263/456/436 246/448/428 293/422/402
f 263/456/436 293/422/402 262/457/437
f 262/457/437 293/422/402 261/458/438
f 261/458/438 293/422/402 260/459/439
f 260/459/439 293/422/402 259/460/440
f 259/460/440 293/422/402 258/461/441
f 258/461/441 293/422/402 257/462/442
f 257/462/442 293/422/402 256/463/443
f 256/463/443 293/422/402 255/464/444
f 255/464/444 293/422/402 254/465/445
f 254/465/445 293/422/402 253/466/446
f 253/466/446 293/422/402 252/467/447
f 252/467/447 293/422/402 251/468/448
f 251/468/448 293/422/402 250/421/401
f 295/469/449 248/470/450 294/424/404
f 294/424/404 248/470/450 247/440/420
f 246/448/428 245/471/451 293/422/402
f 293/422/402 245/471/451 296/472/452
f 241/473/453 297/474/454 242/475/455
f 242/475/455 297/474/454 298/476/456
f 294/477/457 54/478/458 295/479/459
f 295/479/459 54/478/458 53/480/460
f 299/481/461 300/482/462 270/483/463
f 270/483/463 300/482/462 271/484/464
f 260/485/465 301/486/466 261/487/467
f 261/487/467 301/486/466 302/488/468
f 261/487/467 302/488/468 262/489/469
f 262/489/469 302/488/468 303/490/470
f 262/489/469 303/490/470 263/491/471
f 263/491/471 303/490/470 304/492/472
f 263/491/471 304/492/472 264/493/473
f 264/493/473 304/492/472 305/494/474
f 264/493/473 305/494/474 265/495/475
f 265/495/475 305/494/474 306/496/476
f 265/495/475 306/496/476 266/497/477
f 266/497/477 306/496/476 307/498/478
f 266/497/477 307/498/478 267/499/479
f 267/499/479 307/498/478 308/500/480
f 267/499/479 308/500/480 268/501/481
f 268/501/481 308/500/480 309/502/482
f 268/501/481 309/502/482 269/503/483
f 269/503/483 309/502/482 310/504/484
f 269/503/483 310/504/484 270/505/463
f 270/505/463 310/504/484 299/506/461
f 311/507/485 301/508/466 259/509/486
f 259/509/486 301/508/466 260/510/465
f 249/511/487 312/512/488 250/513/489
f 250/513/489 312/512/488 313/514/490
f 250/513/489 313/514/490 251/515/491
f 251/515/491 313/514/490 314/516/492
f 251/515/491 314/516/492 252/517/493
f 252/517/493 314/516/492 315/518/494
f 252/517/493 315/518/494 253/519/495
f 253/519/495 315/518/494 316/520/496
f 253/519/495 316/520/496 254/521/497
f 254/521/497 316/520/496 317/522/498
f 254/521/497 317/522/498 255/523/499
f 255/523/499 317/522/498 318/524/500
f 255/523/499 318/524/500 256/525/501
f 256/525/501 318/524/500 319/526/502
f 256/525/501 319/526/502 257/527/503
f 257/527/503 319/526/502 320/528/504
f 257/527/503 320/528/504 258/529/505
f 258/529/505 320/528/504 321/530/506
f 258/529/505 321/530/506 259/531/486
f 259/531/486 321/530/506 311/532/485
f 322/533/507 312/534/488 292/535/508
f 292/535/508 312/534/488 249/536/487
f 282/537/509 323/538/510 283/539/511
f 283/539/511 323/538/510 324/540/512
f 283/539/511 324/540/512 284/541/513
f 284/541/513 324/540/512 325/542/514
f 284/541/513 325/542/514 285/543/515
f 285/543/515 325/542/514 326/544/516
f 285/543/515 326/544/516 286/545/517
f 286/545/517 326/544/516 327/546/518
f 286/545/517 327/546/518 287/547/519
f 287/547/519 327/546/518 328/548/520
f 287/547/519 328/548/520 288/549/521
f 288/549/521 328/548/520 329/550/522
f 288/549/521 329/550/522 289/551/523
f 289/551/523 329/550/522 330/552/524
f 289/551/523 330/552/524 290/553/525
f 290/553/525 330/552/524 331/554/526
f 290/553/525 331/554/526 291/555/527
f 291/555/527 331/554/526 332/556/528
f 291/555/527 332/556/528 292/557/508
f 292/557/508 332/556/528 322/558/507
f 333/559/529 323/560/510 281/561/530
f 281/561/530 323/560/510 282/562/509
f 271/563/464 300/564/462 272/565/531
f 272/565/531 300/564/462 334/566/532
f 272/565/531 334/566/532 273/567/533
f 273/567/533 334/566/532 335/568/534
f 273/567/533 335/568/534 274/569/535
f 274/569/535 335/568/534 336/570/536
f 274/569/535 336/570/536 275/571/537
f 275/571/537 336/570/536 337/572/538
f 275/571/537 337/572/538 276/573/539
f 276/573/539 337/572/538 338/574/540
f 276/573/539 338/574/540 277/575/541
f 277/575/541 338/574/540 339/576/542
f 277/575/541 339/576/542 278/577/543
f 278/577/543 339/576/542 340/578/544
f 278/577/543 340/578/544 279/579/545
f 279/579/545 340/578/544 341/580/546
f 279/579/545 341/580/546 280/581/547
f 280/581/547 341/580/546 342/582/548
f 280/581/547 342/582/548 281/583/530
f 281/583/530 342/582/548 333/584/529
f 343/585/549 297/586/550 238/587/551
f 238/587/551 297/586/550 241/588/552
f 238/587/551 241/588/552 247/589/553
f 247/589/553 241/588/552 246/590/554
f 246/590/554 241/588/552 244/591/555
f 247/589/553 239/592/556 238/587/551
f 301/593/557 311/594/558 298/595/559
f 298/595/559 311/594/558 321/596/560
f 298/595/559 321/596/560 320/597/561
f 320/597/561 319/598/562 298/595/559
f 298/595/559 319/598/562 318/599/563
f 298/595/559 318/599/563 317/600/564
f 317/600/564 316/601/565 298/595/559
f 298/595/559 316/601/565 315/602/566
f 298/595/559 315/602/566 314/603/567
f 314/603/567 313/604/568 298/595/559
f 298/595/559 313/604/568 312/605/569
f 298/595/559 312/605/569 322/606/570
f 298/595/559 322/606/570 344/607/571
f 344/607/571 322/606/570 332/608/572
f 344/607/571 332/608/572 331/609/573
f 331/609/573 330/610/574 344/607/571
f 344/607/571 330/610/574 329/611/575
f 344/607/571 329/611/575 328/612/576
f 328/612/576 327/613/577 344/607/571
f 344/607/571 327/613/577 326/614/578
f 344/607/571 326/614/578 325/615/579
f 325/615/579 324/616/580 344/607/571
f 344/607/571 324/616/580 323/617/581
f 344/607/571 323/617/581 333/618/582
f 333/618/582 342/619/583 344/607/571
f 344/607/571 342/619/583 341/620/584
f 344/607/571 341/620/584 343/621/585
f 343/621/585 341/620/584 340/622/586
f 343/621/585 340/622/586 339/623/587
f 339/623/587 338/624/588 343/621/585
f 343/621/585 338/624/588 337/625/589
f 343/621/585 337/625/589 336/626/590
f 336/626/590 335/627/591 343/621/585
f 343/621/585 335/627/591 334/628/592
f 343/621/585 334/628/592 300/629/593
f 300/629/593 299/630/594 343/621/585
f 343/621/585 299/630/594 297/631/595
f 297/631/595 299/630/594 310/632/596
f 297/631/595 310/632/596 309/633/597
f 309/633/597 308/634/598 297/631/595
f 297/631/595 308/634/598 307/635/599
f 297/631/595 307/635/599 306/636/600
f 306/636/600 305/637/601 297/631/595
f 297/631/595 305/637/601 304/638/602
f 297/631/595 304/638/602 303/639/603
f 297/631/595 303/639/603 298/595/559
f 298/595/559 303/639/603 302/640/604
f 298/595/559 302/640/604 301/593/557
f 296/641/605 56/642/606 293/643/607
f 293/643/607 56/642/606 55/644/608
f 237/645/609 344/646/610 238/647/611
f 238/647/611 344/646/610 343/648/612
f 56/649/613 296/650/614 52/651/57
f 52/651/57 296/650/614 14/652/58
f 14/652/58 296/650/614 295/653/615
f 14/652/58 295/653/615 1/654/56
f 1/654/56 295/653/615 27/655/55
f 27/655/55 295/653/615 53/656/616
f 245/657/617 242/658/618 296/650/614
f 296/650/614 242/658/618 237/659/619
f 296/650/614 237/659/619 295/653/615
f 295/653/615 237/659/619 240/660/620
f 295/653/615 240/660/620 248/661/621
f 245/657/617 243/662/622 242/658/618
f 298/663/623 344/664/624 242/658/618
f 242/658/618 344/664/624 237/659/619
f 57/665/625 148/666/626 58/667/627
f 58/667/627 148/666/626 293/668/628
f 58/667/627 293/668/628 216/669/629
f 216/669/629 293/668/628 217/670/630
f 217/670/630 293/668/628 218/671/631
f 218/671/631 293/668/628 219/672/632
f 219/672/632 293/668/628 220/673/633
f 220/673/633 293/668/628 221/674/634
f 221/674/634 293/668/628 222/675/635
f 222/675/635 293/668/628 223/676/636
f 223/676/636 293/668/628 97/677/637
f 223/676/636 97/677/637 224/678/638
f 224/678/638 97/677/637 225/679/639
f 225/679/639 97/677/637 226/680/640
f 226/680/640 97/677/637 227/681/641
f 227/681/641 97/677/637 228/682/642
f 228/682/642 97/677/637 229/683/643
f 229/683/643 97/677/637 230/684/644
f 230/684/644 97/677/637 231/685/645
f 231/685/645 97/677/637 232/686/646
f 232/686/646 97/677/637 58/667/627
f 232/686/646 58/667/627 233/687/647
f 233/687/647 58/667/627 234/688/648
f 234/688/648 58/667/627 235/689/649
f 235/689/649 58/667/627 236/690/650
f 236/690/650 58/667/627 213/691/651
f 213/691/651 58/667/627 214/692/652
f 214/692/652 58/667/627 215/693/653
f 215/693/653 58/667/627 216/669/629
f 148/666/626 57/665/625 172/694/654
f 172/694/654 57/665/625 66/695/655
f 172/694/654 66/695/655 173/696/656
f 173/696/656 66/695/655 65/697/657
f 173/696/656 65/697/657 174/698/658
f 174/698/658 65/697/657 64/699/659
f 174/698/658 64/699/659 175/700/660
f 175/700/660 64/699/659 63/701/661
f 175/700/660 63/701/661 176/702/662
f 176/702/662 63/701/661 62/703/663
f 176/702/662 62/703/663 177/704/664
f 177/704/664 62/703/663 15/705/82
f 177/704/664 15/705/82 13/706/32
f 62/703/663 61/707/665 15/705/82
f 15/705/82 61/707/665 78/708/666
f 15/705/82 78/708/666 40/709/81
f 40/709/81 78/708/666 55/710/667
f 55/710/667 78/708/666 85/711/668
f 55/710/667 85/711/668 84/712/669
f 84/712/669 83/713/670 55/710/667
f 55/710/667 83/713/670 82/714/671
f 55/710/667 82/714/671 81/715/672
f 81/715/672 80/716/673 55/710/667
f 55/710/667 80/716/673 97/677/637
f 55/710/667 97/677/637 293/668/628
f 124/717/674 123/718/675 147/719/676
f 147/719/676 123/718/675 146/720/677
f 147/719/676 146/720/677 145/721/678
f 145/721/678 144/722/679 147/719/676
f 147/719/676 144/722/679 143/723/680
f 147/719/676 143/723/680 142/724/681
f 142/724/681 141/725/682 147/719/676
f 147/719/676 141/725/682 140/726/683
f 147/719/676 140/726/683 148/666/626
f 148/666/626 140/726/683 139/727/684
f 148/666/626 139/727/684 138/728/685
f 138/728/685 137/729/686 148/666/626
f 148/666/626 137/729/686 136/730/687
f 148/666/626 136/730/687 135/731/688
f 135/731/688 134/732/689 148/666/626
f 148/666/626 134/732/689 133/733/690
f 148/666/626 133/733/690 132/734/691
f 148/666/626 132/734/691 294/735/692
f 294/735/692 132/734/691 131/736/693
f 294/735/692 131/736/693 130/737/694
f 130/737/694 129/738/695 294/735/692
f 294/735/692 129/738/695 128/739/696
f 294/735/692 128/739/696 127/740/697
f 127/740/697 126/741/698 294/735/692
f 294/735/692 126/741/698 125/742/699
f 294/735/692 125/742/699 147/719/676
f 147/719/676 125/742/699 124/717/674
f 294/735/692 147/719/676 54/743/700
f 54/743/700 147/719/676 151/744/701
f 54/743/700 151/744/701 158/745/702
f 158/745/702 157/746/703 54/743/700
f 54/743/700 157/746/703 156/747/704
f 54/743/700 156/747/704 155/748/705
f 155/748/705 154/749/706 54/743/700
f 54/743/700 154/749/706 153/750/707
f 54/743/700 153/750/707 39/751/31
f 39/751/31 153/750/707 13/706/32
f 13/706/32 153/750/707 170/752/708
f 13/706/32 170/752/708 177/704/664
f 294/735/692 293/668/628 148/666/626
# 344 vertices
# 752 texture params
# 708 normals
# 688 facets

# 1 groups
